G04 EAGLE Gerber RS-274X export*
G75*
%MOMM*%
%FSLAX34Y34*%
%LPD*%
%INSoldermask Top*%
%IPPOS*%
%AMOC8*
5,1,8,0,0,1.08239X$1,22.5*%
G01*
%ADD10R,1.203200X1.303200*%
%ADD11R,1.603200X1.403200*%
%ADD12R,1.033200X0.833200*%
%ADD13C,0.505344*%
%ADD14R,1.203200X4.803200*%
%ADD15R,1.803200X3.603200*%
%ADD16C,2.082800*%
%ADD17R,0.703200X2.703200*%
%ADD18R,2.203200X2.703200*%
%ADD19C,1.103200*%
%ADD20C,0.282416*%
%ADD21R,1.173200X1.103200*%
%ADD22R,0.903200X1.303200*%
%ADD23R,1.203200X1.353200*%
%ADD24C,1.053200*%
%ADD25R,0.703200X1.603200*%
%ADD26R,1.603200X0.703200*%
%ADD27R,1.403200X0.753200*%
%ADD28R,2.003200X1.203200*%
%ADD29R,0.903200X1.703200*%
%ADD30R,1.203200X0.803200*%
%ADD31R,1.203200X1.003200*%
%ADD32C,3.251200*%


D10*
X584200Y93100D03*
X584200Y110100D03*
X350520Y15630D03*
X350520Y32630D03*
X609600Y80400D03*
X609600Y97400D03*
X533400Y67700D03*
X533400Y84700D03*
X177800Y16900D03*
X177800Y33900D03*
X203200Y16900D03*
X203200Y33900D03*
X228600Y16900D03*
X228600Y33900D03*
X254000Y16900D03*
X254000Y33900D03*
X254000Y55000D03*
X254000Y72000D03*
X330200Y15630D03*
X330200Y32630D03*
D11*
X622300Y23100D03*
X622300Y53100D03*
D12*
X552450Y85020D03*
X552450Y108020D03*
X516890Y97720D03*
X516890Y120720D03*
D13*
X511490Y30680D02*
X504510Y30680D01*
X504510Y37660D01*
X511490Y37660D01*
X511490Y30680D01*
X511490Y35480D02*
X504510Y35480D01*
X504510Y13140D02*
X511490Y13140D01*
X504510Y13140D02*
X504510Y20120D01*
X511490Y20120D01*
X511490Y13140D01*
X511490Y17940D02*
X504510Y17940D01*
D11*
X227330Y82790D03*
X227330Y112790D03*
D14*
X691990Y94150D03*
X671990Y94150D03*
D15*
X715990Y42150D03*
X647990Y42150D03*
D16*
X1003300Y114300D03*
X774700Y114300D03*
X1079500Y12700D03*
X1155700Y114300D03*
X1104900Y12700D03*
X1130300Y114300D03*
X381000Y12700D03*
X406400Y25400D03*
X800100Y114300D03*
X825500Y114300D03*
D17*
X342900Y57550D03*
X350900Y57550D03*
X326900Y57550D03*
X334900Y57550D03*
D18*
X297900Y112550D03*
X387900Y112550D03*
X297900Y57550D03*
X387900Y57550D03*
D17*
X358900Y57550D03*
D19*
X364900Y82550D03*
X320900Y82550D03*
D16*
X469900Y25400D03*
X444500Y25400D03*
X1130300Y12700D03*
X1155700Y12700D03*
X1181100Y12700D03*
X1079500Y114300D03*
X1041400Y114300D03*
D20*
X225846Y56274D02*
X225846Y51666D01*
X225846Y56274D02*
X231354Y56274D01*
X231354Y51666D01*
X225846Y51666D01*
X225846Y54349D02*
X231354Y54349D01*
X225846Y60566D02*
X225846Y65174D01*
X231354Y65174D01*
X231354Y60566D01*
X225846Y60566D01*
X225846Y63249D02*
X231354Y63249D01*
D21*
X208280Y59460D03*
X208280Y75160D03*
D10*
X603250Y43570D03*
X603250Y60570D03*
X571500Y16900D03*
X571500Y33900D03*
X458470Y60080D03*
X458470Y77080D03*
X533400Y16900D03*
X533400Y33900D03*
X977900Y67700D03*
X977900Y84700D03*
X254000Y93100D03*
X254000Y110100D03*
D22*
X1038250Y81000D03*
X1038250Y46000D03*
X993750Y46000D03*
X993750Y81000D03*
X1139850Y81000D03*
X1139850Y46000D03*
X1095350Y46000D03*
X1095350Y81000D03*
D23*
X952100Y118420D03*
X927100Y118420D03*
X902100Y118420D03*
X952100Y61920D03*
X927100Y61920D03*
X902100Y61920D03*
D24*
X942100Y90170D03*
X912100Y90170D03*
D25*
X5043Y15097D03*
X13043Y15097D03*
X21043Y15097D03*
X29043Y15097D03*
X37043Y15097D03*
X45043Y15097D03*
X53043Y15097D03*
X61043Y15097D03*
X69043Y15097D03*
X77043Y15097D03*
X85043Y15097D03*
X93043Y15097D03*
X101043Y15097D03*
X109043Y15097D03*
X117043Y15097D03*
X125043Y15097D03*
D26*
X142893Y24097D03*
X142893Y32097D03*
X142893Y40097D03*
X142893Y48097D03*
X142893Y56097D03*
X142893Y64097D03*
X142893Y72097D03*
X142893Y80097D03*
X142893Y88097D03*
X142893Y96097D03*
X142893Y104097D03*
D25*
X125043Y113097D03*
X117043Y113097D03*
X109043Y113097D03*
X101043Y113097D03*
X93043Y113097D03*
X85043Y113097D03*
X77043Y113097D03*
X69043Y113097D03*
X61043Y113097D03*
X53043Y113097D03*
X45043Y113097D03*
X37043Y113097D03*
X29043Y113097D03*
X21043Y113097D03*
X13043Y113097D03*
X5043Y113097D03*
D27*
X584501Y54000D03*
X584501Y63500D03*
X584501Y73000D03*
X558499Y73000D03*
X558499Y54000D03*
X512111Y55270D03*
X512111Y64770D03*
X512111Y74270D03*
X486109Y74270D03*
X486109Y55270D03*
D28*
X304800Y10360D03*
X304800Y35360D03*
D29*
X434700Y94260D03*
X449700Y94260D03*
X479700Y94260D03*
D30*
X420700Y121760D03*
D31*
X420700Y100760D03*
D30*
X493700Y121760D03*
D31*
X493700Y100760D03*
D19*
X442200Y111760D03*
X472200Y111760D03*
D32*
X1181100Y63500D03*
X863600Y63500D03*
M02*
