G04 EAGLE Gerber RS-274X export*
G75*
%MOMM*%
%FSLAX34Y34*%
%LPD*%
%IN*%
%IPPOS*%
%AMOC8*
5,1,8,0,0,1.08239X$1,22.5*%
G01*
%ADD10C,0.000000*%
%ADD11C,0.254000*%


D10*
X0Y0D02*
X1206300Y0D01*
X1206500Y127000D01*
X0Y127000D01*
X0Y0D01*
X360400Y82550D02*
X360402Y82684D01*
X360408Y82818D01*
X360418Y82951D01*
X360432Y83085D01*
X360450Y83218D01*
X360472Y83350D01*
X360497Y83481D01*
X360527Y83612D01*
X360561Y83742D01*
X360598Y83870D01*
X360639Y83998D01*
X360684Y84124D01*
X360733Y84249D01*
X360785Y84372D01*
X360841Y84494D01*
X360901Y84614D01*
X360964Y84732D01*
X361031Y84848D01*
X361101Y84962D01*
X361175Y85074D01*
X361252Y85184D01*
X361332Y85292D01*
X361415Y85397D01*
X361501Y85499D01*
X361590Y85599D01*
X361683Y85696D01*
X361778Y85791D01*
X361876Y85882D01*
X361976Y85971D01*
X362079Y86056D01*
X362185Y86139D01*
X362293Y86218D01*
X362403Y86294D01*
X362516Y86367D01*
X362631Y86436D01*
X362747Y86502D01*
X362866Y86564D01*
X362986Y86623D01*
X363109Y86678D01*
X363232Y86730D01*
X363357Y86777D01*
X363484Y86821D01*
X363612Y86862D01*
X363741Y86898D01*
X363871Y86931D01*
X364002Y86959D01*
X364133Y86984D01*
X364266Y87005D01*
X364399Y87022D01*
X364532Y87035D01*
X364666Y87044D01*
X364800Y87049D01*
X364934Y87050D01*
X365067Y87047D01*
X365201Y87040D01*
X365335Y87029D01*
X365468Y87014D01*
X365601Y86995D01*
X365733Y86972D01*
X365864Y86946D01*
X365994Y86915D01*
X366124Y86880D01*
X366252Y86842D01*
X366379Y86800D01*
X366505Y86754D01*
X366630Y86704D01*
X366753Y86651D01*
X366874Y86594D01*
X366994Y86533D01*
X367111Y86469D01*
X367227Y86402D01*
X367341Y86331D01*
X367452Y86256D01*
X367561Y86179D01*
X367668Y86098D01*
X367773Y86014D01*
X367874Y85927D01*
X367974Y85837D01*
X368070Y85744D01*
X368164Y85648D01*
X368255Y85549D01*
X368342Y85448D01*
X368427Y85344D01*
X368509Y85238D01*
X368587Y85130D01*
X368662Y85019D01*
X368734Y84906D01*
X368803Y84790D01*
X368868Y84673D01*
X368929Y84554D01*
X368987Y84433D01*
X369041Y84311D01*
X369092Y84187D01*
X369139Y84061D01*
X369182Y83934D01*
X369221Y83806D01*
X369257Y83677D01*
X369288Y83547D01*
X369316Y83416D01*
X369340Y83284D01*
X369360Y83151D01*
X369376Y83018D01*
X369388Y82885D01*
X369396Y82751D01*
X369400Y82617D01*
X369400Y82483D01*
X369396Y82349D01*
X369388Y82215D01*
X369376Y82082D01*
X369360Y81949D01*
X369340Y81816D01*
X369316Y81684D01*
X369288Y81553D01*
X369257Y81423D01*
X369221Y81294D01*
X369182Y81166D01*
X369139Y81039D01*
X369092Y80913D01*
X369041Y80789D01*
X368987Y80667D01*
X368929Y80546D01*
X368868Y80427D01*
X368803Y80310D01*
X368734Y80194D01*
X368662Y80081D01*
X368587Y79970D01*
X368509Y79862D01*
X368427Y79756D01*
X368342Y79652D01*
X368255Y79551D01*
X368164Y79452D01*
X368070Y79356D01*
X367974Y79263D01*
X367874Y79173D01*
X367773Y79086D01*
X367668Y79002D01*
X367561Y78921D01*
X367452Y78844D01*
X367341Y78769D01*
X367227Y78698D01*
X367111Y78631D01*
X366994Y78567D01*
X366874Y78506D01*
X366753Y78449D01*
X366630Y78396D01*
X366505Y78346D01*
X366379Y78300D01*
X366252Y78258D01*
X366124Y78220D01*
X365994Y78185D01*
X365864Y78154D01*
X365733Y78128D01*
X365601Y78105D01*
X365468Y78086D01*
X365335Y78071D01*
X365201Y78060D01*
X365067Y78053D01*
X364934Y78050D01*
X364800Y78051D01*
X364666Y78056D01*
X364532Y78065D01*
X364399Y78078D01*
X364266Y78095D01*
X364133Y78116D01*
X364002Y78141D01*
X363871Y78169D01*
X363741Y78202D01*
X363612Y78238D01*
X363484Y78279D01*
X363357Y78323D01*
X363232Y78370D01*
X363109Y78422D01*
X362986Y78477D01*
X362866Y78536D01*
X362747Y78598D01*
X362631Y78664D01*
X362516Y78733D01*
X362403Y78806D01*
X362293Y78882D01*
X362185Y78961D01*
X362079Y79044D01*
X361976Y79129D01*
X361876Y79218D01*
X361778Y79309D01*
X361683Y79404D01*
X361590Y79501D01*
X361501Y79601D01*
X361415Y79703D01*
X361332Y79808D01*
X361252Y79916D01*
X361175Y80026D01*
X361101Y80138D01*
X361031Y80252D01*
X360964Y80368D01*
X360901Y80486D01*
X360841Y80606D01*
X360785Y80728D01*
X360733Y80851D01*
X360684Y80976D01*
X360639Y81102D01*
X360598Y81230D01*
X360561Y81358D01*
X360527Y81488D01*
X360497Y81619D01*
X360472Y81750D01*
X360450Y81882D01*
X360432Y82015D01*
X360418Y82149D01*
X360408Y82282D01*
X360402Y82416D01*
X360400Y82550D01*
X316400Y82550D02*
X316402Y82684D01*
X316408Y82818D01*
X316418Y82951D01*
X316432Y83085D01*
X316450Y83218D01*
X316472Y83350D01*
X316497Y83481D01*
X316527Y83612D01*
X316561Y83742D01*
X316598Y83870D01*
X316639Y83998D01*
X316684Y84124D01*
X316733Y84249D01*
X316785Y84372D01*
X316841Y84494D01*
X316901Y84614D01*
X316964Y84732D01*
X317031Y84848D01*
X317101Y84962D01*
X317175Y85074D01*
X317252Y85184D01*
X317332Y85292D01*
X317415Y85397D01*
X317501Y85499D01*
X317590Y85599D01*
X317683Y85696D01*
X317778Y85791D01*
X317876Y85882D01*
X317976Y85971D01*
X318079Y86056D01*
X318185Y86139D01*
X318293Y86218D01*
X318403Y86294D01*
X318516Y86367D01*
X318631Y86436D01*
X318747Y86502D01*
X318866Y86564D01*
X318986Y86623D01*
X319109Y86678D01*
X319232Y86730D01*
X319357Y86777D01*
X319484Y86821D01*
X319612Y86862D01*
X319741Y86898D01*
X319871Y86931D01*
X320002Y86959D01*
X320133Y86984D01*
X320266Y87005D01*
X320399Y87022D01*
X320532Y87035D01*
X320666Y87044D01*
X320800Y87049D01*
X320934Y87050D01*
X321067Y87047D01*
X321201Y87040D01*
X321335Y87029D01*
X321468Y87014D01*
X321601Y86995D01*
X321733Y86972D01*
X321864Y86946D01*
X321994Y86915D01*
X322124Y86880D01*
X322252Y86842D01*
X322379Y86800D01*
X322505Y86754D01*
X322630Y86704D01*
X322753Y86651D01*
X322874Y86594D01*
X322994Y86533D01*
X323111Y86469D01*
X323227Y86402D01*
X323341Y86331D01*
X323452Y86256D01*
X323561Y86179D01*
X323668Y86098D01*
X323773Y86014D01*
X323874Y85927D01*
X323974Y85837D01*
X324070Y85744D01*
X324164Y85648D01*
X324255Y85549D01*
X324342Y85448D01*
X324427Y85344D01*
X324509Y85238D01*
X324587Y85130D01*
X324662Y85019D01*
X324734Y84906D01*
X324803Y84790D01*
X324868Y84673D01*
X324929Y84554D01*
X324987Y84433D01*
X325041Y84311D01*
X325092Y84187D01*
X325139Y84061D01*
X325182Y83934D01*
X325221Y83806D01*
X325257Y83677D01*
X325288Y83547D01*
X325316Y83416D01*
X325340Y83284D01*
X325360Y83151D01*
X325376Y83018D01*
X325388Y82885D01*
X325396Y82751D01*
X325400Y82617D01*
X325400Y82483D01*
X325396Y82349D01*
X325388Y82215D01*
X325376Y82082D01*
X325360Y81949D01*
X325340Y81816D01*
X325316Y81684D01*
X325288Y81553D01*
X325257Y81423D01*
X325221Y81294D01*
X325182Y81166D01*
X325139Y81039D01*
X325092Y80913D01*
X325041Y80789D01*
X324987Y80667D01*
X324929Y80546D01*
X324868Y80427D01*
X324803Y80310D01*
X324734Y80194D01*
X324662Y80081D01*
X324587Y79970D01*
X324509Y79862D01*
X324427Y79756D01*
X324342Y79652D01*
X324255Y79551D01*
X324164Y79452D01*
X324070Y79356D01*
X323974Y79263D01*
X323874Y79173D01*
X323773Y79086D01*
X323668Y79002D01*
X323561Y78921D01*
X323452Y78844D01*
X323341Y78769D01*
X323227Y78698D01*
X323111Y78631D01*
X322994Y78567D01*
X322874Y78506D01*
X322753Y78449D01*
X322630Y78396D01*
X322505Y78346D01*
X322379Y78300D01*
X322252Y78258D01*
X322124Y78220D01*
X321994Y78185D01*
X321864Y78154D01*
X321733Y78128D01*
X321601Y78105D01*
X321468Y78086D01*
X321335Y78071D01*
X321201Y78060D01*
X321067Y78053D01*
X320934Y78050D01*
X320800Y78051D01*
X320666Y78056D01*
X320532Y78065D01*
X320399Y78078D01*
X320266Y78095D01*
X320133Y78116D01*
X320002Y78141D01*
X319871Y78169D01*
X319741Y78202D01*
X319612Y78238D01*
X319484Y78279D01*
X319357Y78323D01*
X319232Y78370D01*
X319109Y78422D01*
X318986Y78477D01*
X318866Y78536D01*
X318747Y78598D01*
X318631Y78664D01*
X318516Y78733D01*
X318403Y78806D01*
X318293Y78882D01*
X318185Y78961D01*
X318079Y79044D01*
X317976Y79129D01*
X317876Y79218D01*
X317778Y79309D01*
X317683Y79404D01*
X317590Y79501D01*
X317501Y79601D01*
X317415Y79703D01*
X317332Y79808D01*
X317252Y79916D01*
X317175Y80026D01*
X317101Y80138D01*
X317031Y80252D01*
X316964Y80368D01*
X316901Y80486D01*
X316841Y80606D01*
X316785Y80728D01*
X316733Y80851D01*
X316684Y80976D01*
X316639Y81102D01*
X316598Y81230D01*
X316561Y81358D01*
X316527Y81488D01*
X316497Y81619D01*
X316472Y81750D01*
X316450Y81882D01*
X316432Y82015D01*
X316418Y82149D01*
X316408Y82282D01*
X316402Y82416D01*
X316400Y82550D01*
X937850Y90170D02*
X937852Y90300D01*
X937858Y90430D01*
X937868Y90560D01*
X937882Y90690D01*
X937900Y90819D01*
X937922Y90947D01*
X937947Y91075D01*
X937977Y91202D01*
X938011Y91328D01*
X938048Y91452D01*
X938089Y91576D01*
X938134Y91698D01*
X938183Y91819D01*
X938235Y91938D01*
X938291Y92056D01*
X938351Y92172D01*
X938414Y92286D01*
X938481Y92398D01*
X938551Y92507D01*
X938624Y92615D01*
X938700Y92720D01*
X938780Y92823D01*
X938863Y92924D01*
X938949Y93022D01*
X939038Y93117D01*
X939130Y93210D01*
X939224Y93299D01*
X939321Y93386D01*
X939421Y93469D01*
X939524Y93550D01*
X939628Y93627D01*
X939735Y93701D01*
X939845Y93772D01*
X939956Y93840D01*
X940070Y93904D01*
X940185Y93964D01*
X940302Y94021D01*
X940421Y94074D01*
X940542Y94124D01*
X940663Y94170D01*
X940787Y94212D01*
X940911Y94250D01*
X941037Y94285D01*
X941163Y94316D01*
X941291Y94342D01*
X941419Y94365D01*
X941548Y94384D01*
X941677Y94399D01*
X941807Y94410D01*
X941937Y94417D01*
X942067Y94420D01*
X942198Y94419D01*
X942328Y94414D01*
X942458Y94405D01*
X942587Y94392D01*
X942717Y94375D01*
X942845Y94354D01*
X942973Y94329D01*
X943100Y94301D01*
X943226Y94268D01*
X943351Y94232D01*
X943475Y94191D01*
X943598Y94147D01*
X943719Y94100D01*
X943839Y94048D01*
X943957Y93993D01*
X944073Y93934D01*
X944187Y93872D01*
X944300Y93806D01*
X944410Y93737D01*
X944518Y93665D01*
X944624Y93589D01*
X944728Y93510D01*
X944829Y93428D01*
X944928Y93343D01*
X945024Y93255D01*
X945117Y93164D01*
X945207Y93070D01*
X945294Y92973D01*
X945379Y92874D01*
X945460Y92772D01*
X945538Y92668D01*
X945613Y92562D01*
X945685Y92453D01*
X945753Y92342D01*
X945818Y92229D01*
X945879Y92114D01*
X945937Y91997D01*
X945991Y91879D01*
X946042Y91759D01*
X946089Y91637D01*
X946132Y91514D01*
X946171Y91390D01*
X946207Y91265D01*
X946238Y91138D01*
X946266Y91011D01*
X946290Y90883D01*
X946310Y90754D01*
X946326Y90625D01*
X946338Y90495D01*
X946346Y90365D01*
X946350Y90235D01*
X946350Y90105D01*
X946346Y89975D01*
X946338Y89845D01*
X946326Y89715D01*
X946310Y89586D01*
X946290Y89457D01*
X946266Y89329D01*
X946238Y89202D01*
X946207Y89075D01*
X946171Y88950D01*
X946132Y88826D01*
X946089Y88703D01*
X946042Y88581D01*
X945991Y88461D01*
X945937Y88343D01*
X945879Y88226D01*
X945818Y88111D01*
X945753Y87998D01*
X945685Y87887D01*
X945613Y87778D01*
X945538Y87672D01*
X945460Y87568D01*
X945379Y87466D01*
X945294Y87367D01*
X945207Y87270D01*
X945117Y87176D01*
X945024Y87085D01*
X944928Y86997D01*
X944829Y86912D01*
X944728Y86830D01*
X944624Y86751D01*
X944518Y86675D01*
X944410Y86603D01*
X944300Y86534D01*
X944187Y86468D01*
X944073Y86406D01*
X943957Y86347D01*
X943839Y86292D01*
X943719Y86240D01*
X943598Y86193D01*
X943475Y86149D01*
X943351Y86108D01*
X943226Y86072D01*
X943100Y86039D01*
X942973Y86011D01*
X942845Y85986D01*
X942717Y85965D01*
X942587Y85948D01*
X942458Y85935D01*
X942328Y85926D01*
X942198Y85921D01*
X942067Y85920D01*
X941937Y85923D01*
X941807Y85930D01*
X941677Y85941D01*
X941548Y85956D01*
X941419Y85975D01*
X941291Y85998D01*
X941163Y86024D01*
X941037Y86055D01*
X940911Y86090D01*
X940787Y86128D01*
X940663Y86170D01*
X940542Y86216D01*
X940421Y86266D01*
X940302Y86319D01*
X940185Y86376D01*
X940070Y86436D01*
X939956Y86500D01*
X939845Y86568D01*
X939735Y86639D01*
X939628Y86713D01*
X939524Y86790D01*
X939421Y86871D01*
X939321Y86954D01*
X939224Y87041D01*
X939130Y87130D01*
X939038Y87223D01*
X938949Y87318D01*
X938863Y87416D01*
X938780Y87517D01*
X938700Y87620D01*
X938624Y87725D01*
X938551Y87833D01*
X938481Y87942D01*
X938414Y88054D01*
X938351Y88168D01*
X938291Y88284D01*
X938235Y88402D01*
X938183Y88521D01*
X938134Y88642D01*
X938089Y88764D01*
X938048Y88888D01*
X938011Y89012D01*
X937977Y89138D01*
X937947Y89265D01*
X937922Y89393D01*
X937900Y89521D01*
X937882Y89650D01*
X937868Y89780D01*
X937858Y89910D01*
X937852Y90040D01*
X937850Y90170D01*
X907850Y90170D02*
X907852Y90300D01*
X907858Y90430D01*
X907868Y90560D01*
X907882Y90690D01*
X907900Y90819D01*
X907922Y90947D01*
X907947Y91075D01*
X907977Y91202D01*
X908011Y91328D01*
X908048Y91452D01*
X908089Y91576D01*
X908134Y91698D01*
X908183Y91819D01*
X908235Y91938D01*
X908291Y92056D01*
X908351Y92172D01*
X908414Y92286D01*
X908481Y92398D01*
X908551Y92507D01*
X908624Y92615D01*
X908700Y92720D01*
X908780Y92823D01*
X908863Y92924D01*
X908949Y93022D01*
X909038Y93117D01*
X909130Y93210D01*
X909224Y93299D01*
X909321Y93386D01*
X909421Y93469D01*
X909524Y93550D01*
X909628Y93627D01*
X909735Y93701D01*
X909845Y93772D01*
X909956Y93840D01*
X910070Y93904D01*
X910185Y93964D01*
X910302Y94021D01*
X910421Y94074D01*
X910542Y94124D01*
X910663Y94170D01*
X910787Y94212D01*
X910911Y94250D01*
X911037Y94285D01*
X911163Y94316D01*
X911291Y94342D01*
X911419Y94365D01*
X911548Y94384D01*
X911677Y94399D01*
X911807Y94410D01*
X911937Y94417D01*
X912067Y94420D01*
X912198Y94419D01*
X912328Y94414D01*
X912458Y94405D01*
X912587Y94392D01*
X912717Y94375D01*
X912845Y94354D01*
X912973Y94329D01*
X913100Y94301D01*
X913226Y94268D01*
X913351Y94232D01*
X913475Y94191D01*
X913598Y94147D01*
X913719Y94100D01*
X913839Y94048D01*
X913957Y93993D01*
X914073Y93934D01*
X914187Y93872D01*
X914300Y93806D01*
X914410Y93737D01*
X914518Y93665D01*
X914624Y93589D01*
X914728Y93510D01*
X914829Y93428D01*
X914928Y93343D01*
X915024Y93255D01*
X915117Y93164D01*
X915207Y93070D01*
X915294Y92973D01*
X915379Y92874D01*
X915460Y92772D01*
X915538Y92668D01*
X915613Y92562D01*
X915685Y92453D01*
X915753Y92342D01*
X915818Y92229D01*
X915879Y92114D01*
X915937Y91997D01*
X915991Y91879D01*
X916042Y91759D01*
X916089Y91637D01*
X916132Y91514D01*
X916171Y91390D01*
X916207Y91265D01*
X916238Y91138D01*
X916266Y91011D01*
X916290Y90883D01*
X916310Y90754D01*
X916326Y90625D01*
X916338Y90495D01*
X916346Y90365D01*
X916350Y90235D01*
X916350Y90105D01*
X916346Y89975D01*
X916338Y89845D01*
X916326Y89715D01*
X916310Y89586D01*
X916290Y89457D01*
X916266Y89329D01*
X916238Y89202D01*
X916207Y89075D01*
X916171Y88950D01*
X916132Y88826D01*
X916089Y88703D01*
X916042Y88581D01*
X915991Y88461D01*
X915937Y88343D01*
X915879Y88226D01*
X915818Y88111D01*
X915753Y87998D01*
X915685Y87887D01*
X915613Y87778D01*
X915538Y87672D01*
X915460Y87568D01*
X915379Y87466D01*
X915294Y87367D01*
X915207Y87270D01*
X915117Y87176D01*
X915024Y87085D01*
X914928Y86997D01*
X914829Y86912D01*
X914728Y86830D01*
X914624Y86751D01*
X914518Y86675D01*
X914410Y86603D01*
X914300Y86534D01*
X914187Y86468D01*
X914073Y86406D01*
X913957Y86347D01*
X913839Y86292D01*
X913719Y86240D01*
X913598Y86193D01*
X913475Y86149D01*
X913351Y86108D01*
X913226Y86072D01*
X913100Y86039D01*
X912973Y86011D01*
X912845Y85986D01*
X912717Y85965D01*
X912587Y85948D01*
X912458Y85935D01*
X912328Y85926D01*
X912198Y85921D01*
X912067Y85920D01*
X911937Y85923D01*
X911807Y85930D01*
X911677Y85941D01*
X911548Y85956D01*
X911419Y85975D01*
X911291Y85998D01*
X911163Y86024D01*
X911037Y86055D01*
X910911Y86090D01*
X910787Y86128D01*
X910663Y86170D01*
X910542Y86216D01*
X910421Y86266D01*
X910302Y86319D01*
X910185Y86376D01*
X910070Y86436D01*
X909956Y86500D01*
X909845Y86568D01*
X909735Y86639D01*
X909628Y86713D01*
X909524Y86790D01*
X909421Y86871D01*
X909321Y86954D01*
X909224Y87041D01*
X909130Y87130D01*
X909038Y87223D01*
X908949Y87318D01*
X908863Y87416D01*
X908780Y87517D01*
X908700Y87620D01*
X908624Y87725D01*
X908551Y87833D01*
X908481Y87942D01*
X908414Y88054D01*
X908351Y88168D01*
X908291Y88284D01*
X908235Y88402D01*
X908183Y88521D01*
X908134Y88642D01*
X908089Y88764D01*
X908048Y88888D01*
X908011Y89012D01*
X907977Y89138D01*
X907947Y89265D01*
X907922Y89393D01*
X907900Y89521D01*
X907882Y89650D01*
X907868Y89780D01*
X907858Y89910D01*
X907852Y90040D01*
X907850Y90170D01*
X437700Y111760D02*
X437702Y111894D01*
X437708Y112028D01*
X437718Y112161D01*
X437732Y112295D01*
X437750Y112428D01*
X437772Y112560D01*
X437797Y112691D01*
X437827Y112822D01*
X437861Y112952D01*
X437898Y113080D01*
X437939Y113208D01*
X437984Y113334D01*
X438033Y113459D01*
X438085Y113582D01*
X438141Y113704D01*
X438201Y113824D01*
X438264Y113942D01*
X438331Y114058D01*
X438401Y114172D01*
X438475Y114284D01*
X438552Y114394D01*
X438632Y114502D01*
X438715Y114607D01*
X438801Y114709D01*
X438890Y114809D01*
X438983Y114906D01*
X439078Y115001D01*
X439176Y115092D01*
X439276Y115181D01*
X439379Y115266D01*
X439485Y115349D01*
X439593Y115428D01*
X439703Y115504D01*
X439816Y115577D01*
X439931Y115646D01*
X440047Y115712D01*
X440166Y115774D01*
X440286Y115833D01*
X440409Y115888D01*
X440532Y115940D01*
X440657Y115987D01*
X440784Y116031D01*
X440912Y116072D01*
X441041Y116108D01*
X441171Y116141D01*
X441302Y116169D01*
X441433Y116194D01*
X441566Y116215D01*
X441699Y116232D01*
X441832Y116245D01*
X441966Y116254D01*
X442100Y116259D01*
X442234Y116260D01*
X442367Y116257D01*
X442501Y116250D01*
X442635Y116239D01*
X442768Y116224D01*
X442901Y116205D01*
X443033Y116182D01*
X443164Y116156D01*
X443294Y116125D01*
X443424Y116090D01*
X443552Y116052D01*
X443679Y116010D01*
X443805Y115964D01*
X443930Y115914D01*
X444053Y115861D01*
X444174Y115804D01*
X444294Y115743D01*
X444411Y115679D01*
X444527Y115612D01*
X444641Y115541D01*
X444752Y115466D01*
X444861Y115389D01*
X444968Y115308D01*
X445073Y115224D01*
X445174Y115137D01*
X445274Y115047D01*
X445370Y114954D01*
X445464Y114858D01*
X445555Y114759D01*
X445642Y114658D01*
X445727Y114554D01*
X445809Y114448D01*
X445887Y114340D01*
X445962Y114229D01*
X446034Y114116D01*
X446103Y114000D01*
X446168Y113883D01*
X446229Y113764D01*
X446287Y113643D01*
X446341Y113521D01*
X446392Y113397D01*
X446439Y113271D01*
X446482Y113144D01*
X446521Y113016D01*
X446557Y112887D01*
X446588Y112757D01*
X446616Y112626D01*
X446640Y112494D01*
X446660Y112361D01*
X446676Y112228D01*
X446688Y112095D01*
X446696Y111961D01*
X446700Y111827D01*
X446700Y111693D01*
X446696Y111559D01*
X446688Y111425D01*
X446676Y111292D01*
X446660Y111159D01*
X446640Y111026D01*
X446616Y110894D01*
X446588Y110763D01*
X446557Y110633D01*
X446521Y110504D01*
X446482Y110376D01*
X446439Y110249D01*
X446392Y110123D01*
X446341Y109999D01*
X446287Y109877D01*
X446229Y109756D01*
X446168Y109637D01*
X446103Y109520D01*
X446034Y109404D01*
X445962Y109291D01*
X445887Y109180D01*
X445809Y109072D01*
X445727Y108966D01*
X445642Y108862D01*
X445555Y108761D01*
X445464Y108662D01*
X445370Y108566D01*
X445274Y108473D01*
X445174Y108383D01*
X445073Y108296D01*
X444968Y108212D01*
X444861Y108131D01*
X444752Y108054D01*
X444641Y107979D01*
X444527Y107908D01*
X444411Y107841D01*
X444294Y107777D01*
X444174Y107716D01*
X444053Y107659D01*
X443930Y107606D01*
X443805Y107556D01*
X443679Y107510D01*
X443552Y107468D01*
X443424Y107430D01*
X443294Y107395D01*
X443164Y107364D01*
X443033Y107338D01*
X442901Y107315D01*
X442768Y107296D01*
X442635Y107281D01*
X442501Y107270D01*
X442367Y107263D01*
X442234Y107260D01*
X442100Y107261D01*
X441966Y107266D01*
X441832Y107275D01*
X441699Y107288D01*
X441566Y107305D01*
X441433Y107326D01*
X441302Y107351D01*
X441171Y107379D01*
X441041Y107412D01*
X440912Y107448D01*
X440784Y107489D01*
X440657Y107533D01*
X440532Y107580D01*
X440409Y107632D01*
X440286Y107687D01*
X440166Y107746D01*
X440047Y107808D01*
X439931Y107874D01*
X439816Y107943D01*
X439703Y108016D01*
X439593Y108092D01*
X439485Y108171D01*
X439379Y108254D01*
X439276Y108339D01*
X439176Y108428D01*
X439078Y108519D01*
X438983Y108614D01*
X438890Y108711D01*
X438801Y108811D01*
X438715Y108913D01*
X438632Y109018D01*
X438552Y109126D01*
X438475Y109236D01*
X438401Y109348D01*
X438331Y109462D01*
X438264Y109578D01*
X438201Y109696D01*
X438141Y109816D01*
X438085Y109938D01*
X438033Y110061D01*
X437984Y110186D01*
X437939Y110312D01*
X437898Y110440D01*
X437861Y110568D01*
X437827Y110698D01*
X437797Y110829D01*
X437772Y110960D01*
X437750Y111092D01*
X437732Y111225D01*
X437718Y111359D01*
X437708Y111492D01*
X437702Y111626D01*
X437700Y111760D01*
X467700Y111760D02*
X467702Y111894D01*
X467708Y112028D01*
X467718Y112161D01*
X467732Y112295D01*
X467750Y112428D01*
X467772Y112560D01*
X467797Y112691D01*
X467827Y112822D01*
X467861Y112952D01*
X467898Y113080D01*
X467939Y113208D01*
X467984Y113334D01*
X468033Y113459D01*
X468085Y113582D01*
X468141Y113704D01*
X468201Y113824D01*
X468264Y113942D01*
X468331Y114058D01*
X468401Y114172D01*
X468475Y114284D01*
X468552Y114394D01*
X468632Y114502D01*
X468715Y114607D01*
X468801Y114709D01*
X468890Y114809D01*
X468983Y114906D01*
X469078Y115001D01*
X469176Y115092D01*
X469276Y115181D01*
X469379Y115266D01*
X469485Y115349D01*
X469593Y115428D01*
X469703Y115504D01*
X469816Y115577D01*
X469931Y115646D01*
X470047Y115712D01*
X470166Y115774D01*
X470286Y115833D01*
X470409Y115888D01*
X470532Y115940D01*
X470657Y115987D01*
X470784Y116031D01*
X470912Y116072D01*
X471041Y116108D01*
X471171Y116141D01*
X471302Y116169D01*
X471433Y116194D01*
X471566Y116215D01*
X471699Y116232D01*
X471832Y116245D01*
X471966Y116254D01*
X472100Y116259D01*
X472234Y116260D01*
X472367Y116257D01*
X472501Y116250D01*
X472635Y116239D01*
X472768Y116224D01*
X472901Y116205D01*
X473033Y116182D01*
X473164Y116156D01*
X473294Y116125D01*
X473424Y116090D01*
X473552Y116052D01*
X473679Y116010D01*
X473805Y115964D01*
X473930Y115914D01*
X474053Y115861D01*
X474174Y115804D01*
X474294Y115743D01*
X474411Y115679D01*
X474527Y115612D01*
X474641Y115541D01*
X474752Y115466D01*
X474861Y115389D01*
X474968Y115308D01*
X475073Y115224D01*
X475174Y115137D01*
X475274Y115047D01*
X475370Y114954D01*
X475464Y114858D01*
X475555Y114759D01*
X475642Y114658D01*
X475727Y114554D01*
X475809Y114448D01*
X475887Y114340D01*
X475962Y114229D01*
X476034Y114116D01*
X476103Y114000D01*
X476168Y113883D01*
X476229Y113764D01*
X476287Y113643D01*
X476341Y113521D01*
X476392Y113397D01*
X476439Y113271D01*
X476482Y113144D01*
X476521Y113016D01*
X476557Y112887D01*
X476588Y112757D01*
X476616Y112626D01*
X476640Y112494D01*
X476660Y112361D01*
X476676Y112228D01*
X476688Y112095D01*
X476696Y111961D01*
X476700Y111827D01*
X476700Y111693D01*
X476696Y111559D01*
X476688Y111425D01*
X476676Y111292D01*
X476660Y111159D01*
X476640Y111026D01*
X476616Y110894D01*
X476588Y110763D01*
X476557Y110633D01*
X476521Y110504D01*
X476482Y110376D01*
X476439Y110249D01*
X476392Y110123D01*
X476341Y109999D01*
X476287Y109877D01*
X476229Y109756D01*
X476168Y109637D01*
X476103Y109520D01*
X476034Y109404D01*
X475962Y109291D01*
X475887Y109180D01*
X475809Y109072D01*
X475727Y108966D01*
X475642Y108862D01*
X475555Y108761D01*
X475464Y108662D01*
X475370Y108566D01*
X475274Y108473D01*
X475174Y108383D01*
X475073Y108296D01*
X474968Y108212D01*
X474861Y108131D01*
X474752Y108054D01*
X474641Y107979D01*
X474527Y107908D01*
X474411Y107841D01*
X474294Y107777D01*
X474174Y107716D01*
X474053Y107659D01*
X473930Y107606D01*
X473805Y107556D01*
X473679Y107510D01*
X473552Y107468D01*
X473424Y107430D01*
X473294Y107395D01*
X473164Y107364D01*
X473033Y107338D01*
X472901Y107315D01*
X472768Y107296D01*
X472635Y107281D01*
X472501Y107270D01*
X472367Y107263D01*
X472234Y107260D01*
X472100Y107261D01*
X471966Y107266D01*
X471832Y107275D01*
X471699Y107288D01*
X471566Y107305D01*
X471433Y107326D01*
X471302Y107351D01*
X471171Y107379D01*
X471041Y107412D01*
X470912Y107448D01*
X470784Y107489D01*
X470657Y107533D01*
X470532Y107580D01*
X470409Y107632D01*
X470286Y107687D01*
X470166Y107746D01*
X470047Y107808D01*
X469931Y107874D01*
X469816Y107943D01*
X469703Y108016D01*
X469593Y108092D01*
X469485Y108171D01*
X469379Y108254D01*
X469276Y108339D01*
X469176Y108428D01*
X469078Y108519D01*
X468983Y108614D01*
X468890Y108711D01*
X468801Y108811D01*
X468715Y108913D01*
X468632Y109018D01*
X468552Y109126D01*
X468475Y109236D01*
X468401Y109348D01*
X468331Y109462D01*
X468264Y109578D01*
X468201Y109696D01*
X468141Y109816D01*
X468085Y109938D01*
X468033Y110061D01*
X467984Y110186D01*
X467939Y110312D01*
X467898Y110440D01*
X467861Y110568D01*
X467827Y110698D01*
X467797Y110829D01*
X467772Y110960D01*
X467750Y111092D01*
X467732Y111225D01*
X467718Y111359D01*
X467708Y111492D01*
X467702Y111626D01*
X467700Y111760D01*
X1165860Y63500D02*
X1165865Y63874D01*
X1165878Y64248D01*
X1165901Y64621D01*
X1165933Y64994D01*
X1165975Y65366D01*
X1166025Y65736D01*
X1166084Y66105D01*
X1166153Y66473D01*
X1166230Y66839D01*
X1166317Y67203D01*
X1166412Y67565D01*
X1166516Y67924D01*
X1166629Y68281D01*
X1166751Y68634D01*
X1166881Y68985D01*
X1167020Y69332D01*
X1167167Y69676D01*
X1167323Y70016D01*
X1167487Y70352D01*
X1167660Y70684D01*
X1167840Y71012D01*
X1168028Y71335D01*
X1168224Y71653D01*
X1168428Y71967D01*
X1168640Y72275D01*
X1168859Y72578D01*
X1169086Y72876D01*
X1169319Y73168D01*
X1169560Y73454D01*
X1169808Y73735D01*
X1170062Y74009D01*
X1170324Y74276D01*
X1170591Y74538D01*
X1170865Y74792D01*
X1171146Y75040D01*
X1171432Y75281D01*
X1171724Y75514D01*
X1172022Y75741D01*
X1172325Y75960D01*
X1172633Y76172D01*
X1172947Y76376D01*
X1173265Y76572D01*
X1173588Y76760D01*
X1173916Y76940D01*
X1174248Y77113D01*
X1174584Y77277D01*
X1174924Y77433D01*
X1175268Y77580D01*
X1175615Y77719D01*
X1175966Y77849D01*
X1176319Y77971D01*
X1176676Y78084D01*
X1177035Y78188D01*
X1177397Y78283D01*
X1177761Y78370D01*
X1178127Y78447D01*
X1178495Y78516D01*
X1178864Y78575D01*
X1179234Y78625D01*
X1179606Y78667D01*
X1179979Y78699D01*
X1180352Y78722D01*
X1180726Y78735D01*
X1181100Y78740D01*
X1181474Y78735D01*
X1181848Y78722D01*
X1182221Y78699D01*
X1182594Y78667D01*
X1182966Y78625D01*
X1183336Y78575D01*
X1183705Y78516D01*
X1184073Y78447D01*
X1184439Y78370D01*
X1184803Y78283D01*
X1185165Y78188D01*
X1185524Y78084D01*
X1185881Y77971D01*
X1186234Y77849D01*
X1186585Y77719D01*
X1186932Y77580D01*
X1187276Y77433D01*
X1187616Y77277D01*
X1187952Y77113D01*
X1188284Y76940D01*
X1188612Y76760D01*
X1188935Y76572D01*
X1189253Y76376D01*
X1189567Y76172D01*
X1189875Y75960D01*
X1190178Y75741D01*
X1190476Y75514D01*
X1190768Y75281D01*
X1191054Y75040D01*
X1191335Y74792D01*
X1191609Y74538D01*
X1191876Y74276D01*
X1192138Y74009D01*
X1192392Y73735D01*
X1192640Y73454D01*
X1192881Y73168D01*
X1193114Y72876D01*
X1193341Y72578D01*
X1193560Y72275D01*
X1193772Y71967D01*
X1193976Y71653D01*
X1194172Y71335D01*
X1194360Y71012D01*
X1194540Y70684D01*
X1194713Y70352D01*
X1194877Y70016D01*
X1195033Y69676D01*
X1195180Y69332D01*
X1195319Y68985D01*
X1195449Y68634D01*
X1195571Y68281D01*
X1195684Y67924D01*
X1195788Y67565D01*
X1195883Y67203D01*
X1195970Y66839D01*
X1196047Y66473D01*
X1196116Y66105D01*
X1196175Y65736D01*
X1196225Y65366D01*
X1196267Y64994D01*
X1196299Y64621D01*
X1196322Y64248D01*
X1196335Y63874D01*
X1196340Y63500D01*
X1196335Y63126D01*
X1196322Y62752D01*
X1196299Y62379D01*
X1196267Y62006D01*
X1196225Y61634D01*
X1196175Y61264D01*
X1196116Y60895D01*
X1196047Y60527D01*
X1195970Y60161D01*
X1195883Y59797D01*
X1195788Y59435D01*
X1195684Y59076D01*
X1195571Y58719D01*
X1195449Y58366D01*
X1195319Y58015D01*
X1195180Y57668D01*
X1195033Y57324D01*
X1194877Y56984D01*
X1194713Y56648D01*
X1194540Y56316D01*
X1194360Y55988D01*
X1194172Y55665D01*
X1193976Y55347D01*
X1193772Y55033D01*
X1193560Y54725D01*
X1193341Y54422D01*
X1193114Y54124D01*
X1192881Y53832D01*
X1192640Y53546D01*
X1192392Y53265D01*
X1192138Y52991D01*
X1191876Y52724D01*
X1191609Y52462D01*
X1191335Y52208D01*
X1191054Y51960D01*
X1190768Y51719D01*
X1190476Y51486D01*
X1190178Y51259D01*
X1189875Y51040D01*
X1189567Y50828D01*
X1189253Y50624D01*
X1188935Y50428D01*
X1188612Y50240D01*
X1188284Y50060D01*
X1187952Y49887D01*
X1187616Y49723D01*
X1187276Y49567D01*
X1186932Y49420D01*
X1186585Y49281D01*
X1186234Y49151D01*
X1185881Y49029D01*
X1185524Y48916D01*
X1185165Y48812D01*
X1184803Y48717D01*
X1184439Y48630D01*
X1184073Y48553D01*
X1183705Y48484D01*
X1183336Y48425D01*
X1182966Y48375D01*
X1182594Y48333D01*
X1182221Y48301D01*
X1181848Y48278D01*
X1181474Y48265D01*
X1181100Y48260D01*
X1180726Y48265D01*
X1180352Y48278D01*
X1179979Y48301D01*
X1179606Y48333D01*
X1179234Y48375D01*
X1178864Y48425D01*
X1178495Y48484D01*
X1178127Y48553D01*
X1177761Y48630D01*
X1177397Y48717D01*
X1177035Y48812D01*
X1176676Y48916D01*
X1176319Y49029D01*
X1175966Y49151D01*
X1175615Y49281D01*
X1175268Y49420D01*
X1174924Y49567D01*
X1174584Y49723D01*
X1174248Y49887D01*
X1173916Y50060D01*
X1173588Y50240D01*
X1173265Y50428D01*
X1172947Y50624D01*
X1172633Y50828D01*
X1172325Y51040D01*
X1172022Y51259D01*
X1171724Y51486D01*
X1171432Y51719D01*
X1171146Y51960D01*
X1170865Y52208D01*
X1170591Y52462D01*
X1170324Y52724D01*
X1170062Y52991D01*
X1169808Y53265D01*
X1169560Y53546D01*
X1169319Y53832D01*
X1169086Y54124D01*
X1168859Y54422D01*
X1168640Y54725D01*
X1168428Y55033D01*
X1168224Y55347D01*
X1168028Y55665D01*
X1167840Y55988D01*
X1167660Y56316D01*
X1167487Y56648D01*
X1167323Y56984D01*
X1167167Y57324D01*
X1167020Y57668D01*
X1166881Y58015D01*
X1166751Y58366D01*
X1166629Y58719D01*
X1166516Y59076D01*
X1166412Y59435D01*
X1166317Y59797D01*
X1166230Y60161D01*
X1166153Y60527D01*
X1166084Y60895D01*
X1166025Y61264D01*
X1165975Y61634D01*
X1165933Y62006D01*
X1165901Y62379D01*
X1165878Y62752D01*
X1165865Y63126D01*
X1165860Y63500D01*
X848360Y63500D02*
X848365Y63874D01*
X848378Y64248D01*
X848401Y64621D01*
X848433Y64994D01*
X848475Y65366D01*
X848525Y65736D01*
X848584Y66105D01*
X848653Y66473D01*
X848730Y66839D01*
X848817Y67203D01*
X848912Y67565D01*
X849016Y67924D01*
X849129Y68281D01*
X849251Y68634D01*
X849381Y68985D01*
X849520Y69332D01*
X849667Y69676D01*
X849823Y70016D01*
X849987Y70352D01*
X850160Y70684D01*
X850340Y71012D01*
X850528Y71335D01*
X850724Y71653D01*
X850928Y71967D01*
X851140Y72275D01*
X851359Y72578D01*
X851586Y72876D01*
X851819Y73168D01*
X852060Y73454D01*
X852308Y73735D01*
X852562Y74009D01*
X852824Y74276D01*
X853091Y74538D01*
X853365Y74792D01*
X853646Y75040D01*
X853932Y75281D01*
X854224Y75514D01*
X854522Y75741D01*
X854825Y75960D01*
X855133Y76172D01*
X855447Y76376D01*
X855765Y76572D01*
X856088Y76760D01*
X856416Y76940D01*
X856748Y77113D01*
X857084Y77277D01*
X857424Y77433D01*
X857768Y77580D01*
X858115Y77719D01*
X858466Y77849D01*
X858819Y77971D01*
X859176Y78084D01*
X859535Y78188D01*
X859897Y78283D01*
X860261Y78370D01*
X860627Y78447D01*
X860995Y78516D01*
X861364Y78575D01*
X861734Y78625D01*
X862106Y78667D01*
X862479Y78699D01*
X862852Y78722D01*
X863226Y78735D01*
X863600Y78740D01*
X863974Y78735D01*
X864348Y78722D01*
X864721Y78699D01*
X865094Y78667D01*
X865466Y78625D01*
X865836Y78575D01*
X866205Y78516D01*
X866573Y78447D01*
X866939Y78370D01*
X867303Y78283D01*
X867665Y78188D01*
X868024Y78084D01*
X868381Y77971D01*
X868734Y77849D01*
X869085Y77719D01*
X869432Y77580D01*
X869776Y77433D01*
X870116Y77277D01*
X870452Y77113D01*
X870784Y76940D01*
X871112Y76760D01*
X871435Y76572D01*
X871753Y76376D01*
X872067Y76172D01*
X872375Y75960D01*
X872678Y75741D01*
X872976Y75514D01*
X873268Y75281D01*
X873554Y75040D01*
X873835Y74792D01*
X874109Y74538D01*
X874376Y74276D01*
X874638Y74009D01*
X874892Y73735D01*
X875140Y73454D01*
X875381Y73168D01*
X875614Y72876D01*
X875841Y72578D01*
X876060Y72275D01*
X876272Y71967D01*
X876476Y71653D01*
X876672Y71335D01*
X876860Y71012D01*
X877040Y70684D01*
X877213Y70352D01*
X877377Y70016D01*
X877533Y69676D01*
X877680Y69332D01*
X877819Y68985D01*
X877949Y68634D01*
X878071Y68281D01*
X878184Y67924D01*
X878288Y67565D01*
X878383Y67203D01*
X878470Y66839D01*
X878547Y66473D01*
X878616Y66105D01*
X878675Y65736D01*
X878725Y65366D01*
X878767Y64994D01*
X878799Y64621D01*
X878822Y64248D01*
X878835Y63874D01*
X878840Y63500D01*
X878835Y63126D01*
X878822Y62752D01*
X878799Y62379D01*
X878767Y62006D01*
X878725Y61634D01*
X878675Y61264D01*
X878616Y60895D01*
X878547Y60527D01*
X878470Y60161D01*
X878383Y59797D01*
X878288Y59435D01*
X878184Y59076D01*
X878071Y58719D01*
X877949Y58366D01*
X877819Y58015D01*
X877680Y57668D01*
X877533Y57324D01*
X877377Y56984D01*
X877213Y56648D01*
X877040Y56316D01*
X876860Y55988D01*
X876672Y55665D01*
X876476Y55347D01*
X876272Y55033D01*
X876060Y54725D01*
X875841Y54422D01*
X875614Y54124D01*
X875381Y53832D01*
X875140Y53546D01*
X874892Y53265D01*
X874638Y52991D01*
X874376Y52724D01*
X874109Y52462D01*
X873835Y52208D01*
X873554Y51960D01*
X873268Y51719D01*
X872976Y51486D01*
X872678Y51259D01*
X872375Y51040D01*
X872067Y50828D01*
X871753Y50624D01*
X871435Y50428D01*
X871112Y50240D01*
X870784Y50060D01*
X870452Y49887D01*
X870116Y49723D01*
X869776Y49567D01*
X869432Y49420D01*
X869085Y49281D01*
X868734Y49151D01*
X868381Y49029D01*
X868024Y48916D01*
X867665Y48812D01*
X867303Y48717D01*
X866939Y48630D01*
X866573Y48553D01*
X866205Y48484D01*
X865836Y48425D01*
X865466Y48375D01*
X865094Y48333D01*
X864721Y48301D01*
X864348Y48278D01*
X863974Y48265D01*
X863600Y48260D01*
X863226Y48265D01*
X862852Y48278D01*
X862479Y48301D01*
X862106Y48333D01*
X861734Y48375D01*
X861364Y48425D01*
X860995Y48484D01*
X860627Y48553D01*
X860261Y48630D01*
X859897Y48717D01*
X859535Y48812D01*
X859176Y48916D01*
X858819Y49029D01*
X858466Y49151D01*
X858115Y49281D01*
X857768Y49420D01*
X857424Y49567D01*
X857084Y49723D01*
X856748Y49887D01*
X856416Y50060D01*
X856088Y50240D01*
X855765Y50428D01*
X855447Y50624D01*
X855133Y50828D01*
X854825Y51040D01*
X854522Y51259D01*
X854224Y51486D01*
X853932Y51719D01*
X853646Y51960D01*
X853365Y52208D01*
X853091Y52462D01*
X852824Y52724D01*
X852562Y52991D01*
X852308Y53265D01*
X852060Y53546D01*
X851819Y53832D01*
X851586Y54124D01*
X851359Y54422D01*
X851140Y54725D01*
X850928Y55033D01*
X850724Y55347D01*
X850528Y55665D01*
X850340Y55988D01*
X850160Y56316D01*
X849987Y56648D01*
X849823Y56984D01*
X849667Y57324D01*
X849520Y57668D01*
X849381Y58015D01*
X849251Y58366D01*
X849129Y58719D01*
X849016Y59076D01*
X848912Y59435D01*
X848817Y59797D01*
X848730Y60161D01*
X848653Y60527D01*
X848584Y60895D01*
X848525Y61264D01*
X848475Y61634D01*
X848433Y62006D01*
X848401Y62379D01*
X848378Y62752D01*
X848365Y63126D01*
X848360Y63500D01*
D11*
X0Y0D02*
X1206300Y0D01*
X1206500Y127000D01*
X0Y127000D01*
X0Y0D01*
X364605Y78050D02*
X364020Y78127D01*
X363450Y78280D01*
X362905Y78505D01*
X362395Y78800D01*
X361927Y79159D01*
X361509Y79577D01*
X361150Y80045D01*
X360855Y80555D01*
X360630Y81100D01*
X360477Y81670D01*
X360400Y82255D01*
X360400Y82845D01*
X360477Y83430D01*
X360630Y84000D01*
X360855Y84545D01*
X361150Y85055D01*
X361509Y85523D01*
X361927Y85941D01*
X362395Y86300D01*
X362905Y86595D01*
X363450Y86820D01*
X364020Y86973D01*
X364605Y87050D01*
X365195Y87050D01*
X365780Y86973D01*
X366350Y86820D01*
X366895Y86595D01*
X367405Y86300D01*
X367873Y85941D01*
X368291Y85523D01*
X368650Y85055D01*
X368945Y84545D01*
X369170Y84000D01*
X369323Y83430D01*
X369400Y82845D01*
X369400Y82255D01*
X369323Y81670D01*
X369170Y81100D01*
X368945Y80555D01*
X368650Y80045D01*
X368291Y79577D01*
X367873Y79159D01*
X367405Y78800D01*
X366895Y78505D01*
X366350Y78280D01*
X365780Y78127D01*
X365195Y78050D01*
X364605Y78050D01*
X320605Y78050D02*
X320020Y78127D01*
X319450Y78280D01*
X318905Y78505D01*
X318395Y78800D01*
X317927Y79159D01*
X317509Y79577D01*
X317150Y80045D01*
X316855Y80555D01*
X316630Y81100D01*
X316477Y81670D01*
X316400Y82255D01*
X316400Y82845D01*
X316477Y83430D01*
X316630Y84000D01*
X316855Y84545D01*
X317150Y85055D01*
X317509Y85523D01*
X317927Y85941D01*
X318395Y86300D01*
X318905Y86595D01*
X319450Y86820D01*
X320020Y86973D01*
X320605Y87050D01*
X321195Y87050D01*
X321780Y86973D01*
X322350Y86820D01*
X322895Y86595D01*
X323405Y86300D01*
X323873Y85941D01*
X324291Y85523D01*
X324650Y85055D01*
X324945Y84545D01*
X325170Y84000D01*
X325323Y83430D01*
X325400Y82845D01*
X325400Y82255D01*
X325323Y81670D01*
X325170Y81100D01*
X324945Y80555D01*
X324650Y80045D01*
X324291Y79577D01*
X323873Y79159D01*
X323405Y78800D01*
X322895Y78505D01*
X322350Y78280D01*
X321780Y78127D01*
X321195Y78050D01*
X320605Y78050D01*
X946350Y89891D02*
X946277Y89339D01*
X946133Y88801D01*
X945920Y88286D01*
X945641Y87804D01*
X945302Y87362D01*
X944908Y86968D01*
X944466Y86629D01*
X943984Y86350D01*
X943469Y86137D01*
X942931Y85993D01*
X942379Y85920D01*
X941821Y85920D01*
X941269Y85993D01*
X940731Y86137D01*
X940216Y86350D01*
X939734Y86629D01*
X939292Y86968D01*
X938898Y87362D01*
X938559Y87804D01*
X938280Y88286D01*
X938067Y88801D01*
X937923Y89339D01*
X937850Y89891D01*
X937850Y90449D01*
X937923Y91001D01*
X938067Y91539D01*
X938280Y92054D01*
X938559Y92536D01*
X938898Y92978D01*
X939292Y93372D01*
X939734Y93711D01*
X940216Y93990D01*
X940731Y94203D01*
X941269Y94347D01*
X941821Y94420D01*
X942379Y94420D01*
X942931Y94347D01*
X943469Y94203D01*
X943984Y93990D01*
X944466Y93711D01*
X944908Y93372D01*
X945302Y92978D01*
X945641Y92536D01*
X945920Y92054D01*
X946133Y91539D01*
X946277Y91001D01*
X946350Y90449D01*
X946350Y89891D01*
X916350Y89891D02*
X916277Y89339D01*
X916133Y88801D01*
X915920Y88286D01*
X915641Y87804D01*
X915302Y87362D01*
X914908Y86968D01*
X914466Y86629D01*
X913984Y86350D01*
X913469Y86137D01*
X912931Y85993D01*
X912379Y85920D01*
X911821Y85920D01*
X911269Y85993D01*
X910731Y86137D01*
X910216Y86350D01*
X909734Y86629D01*
X909292Y86968D01*
X908898Y87362D01*
X908559Y87804D01*
X908280Y88286D01*
X908067Y88801D01*
X907923Y89339D01*
X907850Y89891D01*
X907850Y90449D01*
X907923Y91001D01*
X908067Y91539D01*
X908280Y92054D01*
X908559Y92536D01*
X908898Y92978D01*
X909292Y93372D01*
X909734Y93711D01*
X910216Y93990D01*
X910731Y94203D01*
X911269Y94347D01*
X911821Y94420D01*
X912379Y94420D01*
X912931Y94347D01*
X913469Y94203D01*
X913984Y93990D01*
X914466Y93711D01*
X914908Y93372D01*
X915302Y92978D01*
X915641Y92536D01*
X915920Y92054D01*
X916133Y91539D01*
X916277Y91001D01*
X916350Y90449D01*
X916350Y89891D01*
X446700Y111465D02*
X446623Y110880D01*
X446470Y110310D01*
X446245Y109765D01*
X445950Y109255D01*
X445591Y108787D01*
X445173Y108369D01*
X444705Y108010D01*
X444195Y107715D01*
X443650Y107490D01*
X443080Y107337D01*
X442495Y107260D01*
X441905Y107260D01*
X441320Y107337D01*
X440750Y107490D01*
X440205Y107715D01*
X439695Y108010D01*
X439227Y108369D01*
X438809Y108787D01*
X438450Y109255D01*
X438155Y109765D01*
X437930Y110310D01*
X437777Y110880D01*
X437700Y111465D01*
X437700Y112055D01*
X437777Y112640D01*
X437930Y113210D01*
X438155Y113755D01*
X438450Y114265D01*
X438809Y114733D01*
X439227Y115151D01*
X439695Y115510D01*
X440205Y115805D01*
X440750Y116030D01*
X441320Y116183D01*
X441905Y116260D01*
X442495Y116260D01*
X443080Y116183D01*
X443650Y116030D01*
X444195Y115805D01*
X444705Y115510D01*
X445173Y115151D01*
X445591Y114733D01*
X445950Y114265D01*
X446245Y113755D01*
X446470Y113210D01*
X446623Y112640D01*
X446700Y112055D01*
X446700Y111465D01*
X476700Y111465D02*
X476623Y110880D01*
X476470Y110310D01*
X476245Y109765D01*
X475950Y109255D01*
X475591Y108787D01*
X475173Y108369D01*
X474705Y108010D01*
X474195Y107715D01*
X473650Y107490D01*
X473080Y107337D01*
X472495Y107260D01*
X471905Y107260D01*
X471320Y107337D01*
X470750Y107490D01*
X470205Y107715D01*
X469695Y108010D01*
X469227Y108369D01*
X468809Y108787D01*
X468450Y109255D01*
X468155Y109765D01*
X467930Y110310D01*
X467777Y110880D01*
X467700Y111465D01*
X467700Y112055D01*
X467777Y112640D01*
X467930Y113210D01*
X468155Y113755D01*
X468450Y114265D01*
X468809Y114733D01*
X469227Y115151D01*
X469695Y115510D01*
X470205Y115805D01*
X470750Y116030D01*
X471320Y116183D01*
X471905Y116260D01*
X472495Y116260D01*
X473080Y116183D01*
X473650Y116030D01*
X474195Y115805D01*
X474705Y115510D01*
X475173Y115151D01*
X475591Y114733D01*
X475950Y114265D01*
X476245Y113755D01*
X476470Y113210D01*
X476623Y112640D01*
X476700Y112055D01*
X476700Y111465D01*
X1196340Y62956D02*
X1196262Y61870D01*
X1196107Y60792D01*
X1195876Y59729D01*
X1195569Y58684D01*
X1195189Y57664D01*
X1194737Y56674D01*
X1194215Y55719D01*
X1193626Y54803D01*
X1192974Y53931D01*
X1192261Y53109D01*
X1191491Y52339D01*
X1190669Y51626D01*
X1189797Y50974D01*
X1188881Y50385D01*
X1187926Y49863D01*
X1186936Y49411D01*
X1185916Y49031D01*
X1184871Y48724D01*
X1183808Y48493D01*
X1182730Y48338D01*
X1181644Y48260D01*
X1180556Y48260D01*
X1179470Y48338D01*
X1178392Y48493D01*
X1177329Y48724D01*
X1176284Y49031D01*
X1175264Y49411D01*
X1174274Y49863D01*
X1173319Y50385D01*
X1172403Y50974D01*
X1171531Y51626D01*
X1170709Y52339D01*
X1169939Y53109D01*
X1169226Y53931D01*
X1168574Y54803D01*
X1167985Y55719D01*
X1167463Y56674D01*
X1167011Y57664D01*
X1166631Y58684D01*
X1166324Y59729D01*
X1166093Y60792D01*
X1165938Y61870D01*
X1165860Y62956D01*
X1165860Y64044D01*
X1165938Y65130D01*
X1166093Y66208D01*
X1166324Y67271D01*
X1166631Y68316D01*
X1167011Y69336D01*
X1167463Y70326D01*
X1167985Y71281D01*
X1168574Y72197D01*
X1169226Y73069D01*
X1169939Y73891D01*
X1170709Y74661D01*
X1171531Y75374D01*
X1172403Y76026D01*
X1173319Y76615D01*
X1174274Y77137D01*
X1175264Y77589D01*
X1176284Y77969D01*
X1177329Y78276D01*
X1178392Y78507D01*
X1179470Y78662D01*
X1180556Y78740D01*
X1181644Y78740D01*
X1182730Y78662D01*
X1183808Y78507D01*
X1184871Y78276D01*
X1185916Y77969D01*
X1186936Y77589D01*
X1187926Y77137D01*
X1188881Y76615D01*
X1189797Y76026D01*
X1190669Y75374D01*
X1191491Y74661D01*
X1192261Y73891D01*
X1192974Y73069D01*
X1193626Y72197D01*
X1194215Y71281D01*
X1194737Y70326D01*
X1195189Y69336D01*
X1195569Y68316D01*
X1195876Y67271D01*
X1196107Y66208D01*
X1196262Y65130D01*
X1196340Y64044D01*
X1196340Y62956D01*
X878840Y62956D02*
X878762Y61870D01*
X878607Y60792D01*
X878376Y59729D01*
X878069Y58684D01*
X877689Y57664D01*
X877237Y56674D01*
X876715Y55719D01*
X876126Y54803D01*
X875474Y53931D01*
X874761Y53109D01*
X873991Y52339D01*
X873169Y51626D01*
X872297Y50974D01*
X871381Y50385D01*
X870426Y49863D01*
X869436Y49411D01*
X868416Y49031D01*
X867371Y48724D01*
X866308Y48493D01*
X865230Y48338D01*
X864144Y48260D01*
X863056Y48260D01*
X861970Y48338D01*
X860892Y48493D01*
X859829Y48724D01*
X858784Y49031D01*
X857764Y49411D01*
X856774Y49863D01*
X855819Y50385D01*
X854903Y50974D01*
X854031Y51626D01*
X853209Y52339D01*
X852439Y53109D01*
X851726Y53931D01*
X851074Y54803D01*
X850485Y55719D01*
X849963Y56674D01*
X849511Y57664D01*
X849131Y58684D01*
X848824Y59729D01*
X848593Y60792D01*
X848438Y61870D01*
X848360Y62956D01*
X848360Y64044D01*
X848438Y65130D01*
X848593Y66208D01*
X848824Y67271D01*
X849131Y68316D01*
X849511Y69336D01*
X849963Y70326D01*
X850485Y71281D01*
X851074Y72197D01*
X851726Y73069D01*
X852439Y73891D01*
X853209Y74661D01*
X854031Y75374D01*
X854903Y76026D01*
X855819Y76615D01*
X856774Y77137D01*
X857764Y77589D01*
X858784Y77969D01*
X859829Y78276D01*
X860892Y78507D01*
X861970Y78662D01*
X863056Y78740D01*
X864144Y78740D01*
X865230Y78662D01*
X866308Y78507D01*
X867371Y78276D01*
X868416Y77969D01*
X869436Y77589D01*
X870426Y77137D01*
X871381Y76615D01*
X872297Y76026D01*
X873169Y75374D01*
X873991Y74661D01*
X874761Y73891D01*
X875474Y73069D01*
X876126Y72197D01*
X876715Y71281D01*
X877237Y70326D01*
X877689Y69336D01*
X878069Y68316D01*
X878376Y67271D01*
X878607Y66208D01*
X878762Y65130D01*
X878840Y64044D01*
X878840Y62956D01*
M02*
