M48
;GenerationSoftware,Autodesk,EAGLE,9.4.2*%
;CreationDate,2019-09-18T02:21:37Z*%
FMAT,2
ICI,OFF
METRIC,TZ,000.000
T5C0.381
T4C0.850
T3C0.900
T2C1.016
T1C3.048
%
G90
M71
T1
X86360Y6350
X118110Y6350
T2
X104140Y11430
X107950Y11430
X118110Y1270
X115570Y1270
X113030Y1270
X44450Y2540
X46990Y2540
X82550Y11430
X80010Y11430
X40640Y2540
X38100Y1270
X113030Y11430
X110490Y1270
X115570Y11430
X107950Y1270
X77470Y11430
X100330Y11430
T3
X47220Y11176
X44220Y11176
X32090Y8255
X36490Y8255
T4
X91210Y9017
X94210Y9017
T5
X17780Y4572
X8001Y3302
X5715Y4826
X18932Y5216
X18542Y9756
X104902Y7874
X17907Y10414
X110617Y9271
X18274Y5851
X96520Y11684
X19050Y6604
X5969Y7980
X5974Y8895
X91440Y11430
X5969Y9906
X17140Y8260
X74930Y8890
X15553Y7570
X75946Y7747
X8890Y5080
X6858Y4064
X12446Y2921
X28067Y3175
X21590Y4572
X7366Y5461
X11684Y3937
X27940Y1651
X105410Y1270
X52070Y2540
X16510Y2540
X49438Y4683
X13716Y762
X15875Y1270
X28321Y8509
X42545Y1778
X16510Y10160
X10160Y8890
X4064Y3302
X101600Y6985
X104140Y2540
X118110Y11430
X57150Y5156
X88392Y12065
X96424Y6604
M30