G04 EAGLE Gerber RS-274X export*
G75*
%MOMM*%
%FSLAX34Y34*%
%LPD*%
%INBottom Copper*%
%IPPOS*%
%AMOC8*
5,1,8,0,0,1.08239X$1,22.5*%
G01*
%ADD10C,1.879600*%
%ADD11C,0.736600*%
%ADD12C,0.177800*%
%ADD13C,0.508000*%

G36*
X370956Y3056D02*
X370956Y3056D01*
X371007Y3055D01*
X371086Y3076D01*
X371167Y3089D01*
X371214Y3111D01*
X371264Y3125D01*
X371333Y3169D01*
X371407Y3204D01*
X371444Y3239D01*
X371488Y3267D01*
X371541Y3330D01*
X371601Y3386D01*
X371627Y3430D01*
X371660Y3470D01*
X371692Y3545D01*
X371733Y3616D01*
X371744Y3667D01*
X371764Y3714D01*
X371773Y3796D01*
X371791Y3876D01*
X371786Y3927D01*
X371792Y3979D01*
X371776Y4059D01*
X371769Y4141D01*
X371750Y4189D01*
X371740Y4239D01*
X371712Y4283D01*
X371670Y4388D01*
X371557Y4527D01*
X371533Y4565D01*
X370448Y5650D01*
X368492Y10373D01*
X368460Y10426D01*
X368437Y10484D01*
X368391Y10539D01*
X368354Y10601D01*
X368308Y10642D01*
X368269Y10690D01*
X368209Y10730D01*
X368156Y10777D01*
X368100Y10803D01*
X368048Y10837D01*
X368001Y10848D01*
X367914Y10887D01*
X367702Y10914D01*
X367671Y10921D01*
X283675Y10921D01*
X283412Y10881D01*
X283366Y10859D01*
X283335Y10854D01*
X280739Y9778D01*
X278061Y9778D01*
X275587Y10803D01*
X273693Y12697D01*
X272668Y15171D01*
X272668Y17849D01*
X273693Y20323D01*
X275587Y22217D01*
X278061Y23242D01*
X280739Y23242D01*
X283335Y22166D01*
X283593Y22103D01*
X283645Y22105D01*
X283675Y22099D01*
X372428Y22099D01*
X372449Y22102D01*
X372470Y22100D01*
X372581Y22122D01*
X372691Y22139D01*
X372710Y22148D01*
X372731Y22152D01*
X372769Y22176D01*
X372931Y22254D01*
X373013Y22331D01*
X373057Y22359D01*
X373949Y23252D01*
X378524Y25147D01*
X383476Y25147D01*
X388050Y23252D01*
X391552Y19750D01*
X393447Y15176D01*
X393447Y12827D01*
X393462Y12725D01*
X393470Y12623D01*
X393482Y12595D01*
X393487Y12564D01*
X393531Y12472D01*
X393569Y12376D01*
X393589Y12353D01*
X393602Y12325D01*
X393672Y12250D01*
X393737Y12170D01*
X393763Y12153D01*
X393784Y12131D01*
X393873Y12080D01*
X393958Y12023D01*
X393982Y12017D01*
X394014Y11999D01*
X394274Y11941D01*
X394312Y11944D01*
X394335Y11939D01*
X403787Y11939D01*
X403850Y11948D01*
X403914Y11948D01*
X403981Y11968D01*
X404050Y11979D01*
X404107Y12006D01*
X404168Y12025D01*
X404226Y12064D01*
X404289Y12094D01*
X404336Y12138D01*
X404389Y12174D01*
X404432Y12228D01*
X404484Y12276D01*
X404515Y12331D01*
X404555Y12381D01*
X404581Y12446D01*
X404615Y12506D01*
X404629Y12569D01*
X404653Y12628D01*
X404658Y12698D01*
X404673Y12766D01*
X404668Y12830D01*
X404673Y12893D01*
X404657Y12961D01*
X404652Y13031D01*
X404628Y13090D01*
X404614Y13152D01*
X404579Y13213D01*
X404553Y13278D01*
X404512Y13327D01*
X404480Y13382D01*
X404429Y13430D01*
X404385Y13484D01*
X404332Y13519D01*
X404285Y13563D01*
X404241Y13580D01*
X404164Y13631D01*
X404042Y13658D01*
X403926Y13704D01*
X403604Y13755D01*
X401817Y14336D01*
X400143Y15189D01*
X398622Y16294D01*
X397294Y17622D01*
X396189Y19143D01*
X395336Y20817D01*
X394755Y22604D01*
X394594Y23623D01*
X405511Y23623D01*
X405612Y23638D01*
X405715Y23646D01*
X405743Y23658D01*
X405774Y23663D01*
X405866Y23707D01*
X405961Y23745D01*
X405985Y23765D01*
X406013Y23778D01*
X406088Y23848D01*
X406168Y23913D01*
X406185Y23939D01*
X406207Y23960D01*
X406258Y24049D01*
X406315Y24134D01*
X406320Y24158D01*
X406339Y24190D01*
X406397Y24450D01*
X406394Y24488D01*
X406399Y24511D01*
X406399Y26289D01*
X406384Y26390D01*
X406375Y26493D01*
X406364Y26521D01*
X406359Y26552D01*
X406315Y26644D01*
X406276Y26739D01*
X406257Y26763D01*
X406244Y26791D01*
X406174Y26866D01*
X406109Y26946D01*
X406083Y26963D01*
X406062Y26985D01*
X405973Y27036D01*
X405888Y27093D01*
X405864Y27099D01*
X405831Y27117D01*
X405572Y27175D01*
X405534Y27172D01*
X405511Y27177D01*
X394594Y27177D01*
X394755Y28196D01*
X395336Y29983D01*
X396189Y31657D01*
X396984Y32752D01*
X397037Y32854D01*
X397094Y32953D01*
X397098Y32971D01*
X397107Y32988D01*
X397127Y33101D01*
X397152Y33213D01*
X397150Y33231D01*
X397154Y33250D01*
X397140Y33364D01*
X397130Y33478D01*
X397123Y33495D01*
X397121Y33513D01*
X397074Y33618D01*
X397031Y33725D01*
X397020Y33739D01*
X397012Y33756D01*
X396936Y33842D01*
X396864Y33931D01*
X396848Y33941D01*
X396836Y33955D01*
X396738Y34015D01*
X396643Y34078D01*
X396628Y34082D01*
X396609Y34093D01*
X396351Y34158D01*
X396297Y34155D01*
X396266Y34162D01*
X288287Y34162D01*
X288274Y34160D01*
X288262Y34162D01*
X288143Y34141D01*
X288024Y34122D01*
X288013Y34117D01*
X288001Y34115D01*
X287893Y34059D01*
X287784Y34007D01*
X287775Y33998D01*
X287764Y33993D01*
X287679Y33908D01*
X287590Y33825D01*
X287584Y33815D01*
X287575Y33806D01*
X287518Y33699D01*
X287458Y33595D01*
X287455Y33583D01*
X287450Y33572D01*
X287427Y33453D01*
X287400Y33335D01*
X287401Y33323D01*
X287399Y33311D01*
X287405Y33279D01*
X287402Y33266D01*
X287402Y30411D01*
X286377Y27937D01*
X284483Y26043D01*
X282009Y25018D01*
X279331Y25018D01*
X278881Y25205D01*
X278623Y25268D01*
X278571Y25266D01*
X278541Y25272D01*
X275139Y25272D01*
X275118Y25269D01*
X275097Y25271D01*
X274987Y25249D01*
X274876Y25232D01*
X274857Y25223D01*
X274836Y25219D01*
X274798Y25195D01*
X274637Y25117D01*
X274554Y25040D01*
X274511Y25012D01*
X264611Y15112D01*
X136799Y15112D01*
X134232Y17679D01*
X128788Y23123D01*
X128738Y23160D01*
X128695Y23204D01*
X128632Y23238D01*
X128574Y23281D01*
X128516Y23301D01*
X128461Y23331D01*
X128391Y23344D01*
X128323Y23368D01*
X128261Y23370D01*
X128200Y23382D01*
X128153Y23374D01*
X128058Y23377D01*
X127851Y23321D01*
X127820Y23315D01*
X125799Y22478D01*
X123121Y22478D01*
X120647Y23503D01*
X118753Y25397D01*
X117728Y27871D01*
X117728Y30549D01*
X118085Y31410D01*
X118087Y31420D01*
X118093Y31429D01*
X118119Y31549D01*
X118149Y31668D01*
X118148Y31679D01*
X118150Y31689D01*
X118140Y31811D01*
X118133Y31934D01*
X118130Y31943D01*
X118129Y31954D01*
X118083Y32068D01*
X118040Y32182D01*
X118034Y32191D01*
X118030Y32201D01*
X117952Y32296D01*
X117877Y32393D01*
X117869Y32399D01*
X117862Y32407D01*
X117760Y32475D01*
X117660Y32545D01*
X117650Y32549D01*
X117641Y32554D01*
X117611Y32561D01*
X117407Y32627D01*
X117311Y32628D01*
X117264Y32638D01*
X115501Y32638D01*
X113027Y33663D01*
X111133Y35557D01*
X110480Y37134D01*
X110474Y37143D01*
X110472Y37153D01*
X110405Y37257D01*
X110342Y37362D01*
X110335Y37369D01*
X110329Y37378D01*
X110235Y37457D01*
X110144Y37538D01*
X110134Y37543D01*
X110126Y37550D01*
X110013Y37598D01*
X109902Y37649D01*
X109892Y37650D01*
X109882Y37654D01*
X109760Y37667D01*
X109638Y37682D01*
X109628Y37680D01*
X109617Y37681D01*
X109497Y37657D01*
X109376Y37636D01*
X109367Y37631D01*
X109357Y37629D01*
X109331Y37613D01*
X109140Y37515D01*
X109072Y37448D01*
X109031Y37422D01*
X100691Y29082D01*
X85960Y29082D01*
X85940Y29079D01*
X85919Y29081D01*
X85808Y29059D01*
X85698Y29042D01*
X85679Y29033D01*
X85658Y29029D01*
X85619Y29005D01*
X85458Y28927D01*
X85376Y28850D01*
X85332Y28822D01*
X83823Y27313D01*
X81349Y26288D01*
X78671Y26288D01*
X76197Y27313D01*
X74303Y29207D01*
X73278Y31681D01*
X73278Y33970D01*
X73277Y33981D01*
X73278Y33991D01*
X73257Y34112D01*
X73238Y34233D01*
X73234Y34243D01*
X73232Y34253D01*
X73176Y34362D01*
X73123Y34472D01*
X73116Y34480D01*
X73111Y34490D01*
X73025Y34577D01*
X72941Y34667D01*
X72932Y34672D01*
X72925Y34680D01*
X72817Y34738D01*
X72711Y34799D01*
X72700Y34801D01*
X72691Y34806D01*
X72571Y34830D01*
X72451Y34857D01*
X72441Y34856D01*
X72430Y34858D01*
X72400Y34852D01*
X72186Y34835D01*
X72098Y34799D01*
X72050Y34791D01*
X69919Y33908D01*
X67241Y33908D01*
X64767Y34933D01*
X62873Y36827D01*
X61848Y39301D01*
X61848Y41590D01*
X61847Y41601D01*
X61848Y41611D01*
X61827Y41732D01*
X61808Y41853D01*
X61804Y41863D01*
X61802Y41873D01*
X61746Y41982D01*
X61693Y42092D01*
X61686Y42100D01*
X61681Y42110D01*
X61595Y42197D01*
X61511Y42287D01*
X61502Y42292D01*
X61495Y42300D01*
X61387Y42358D01*
X61281Y42419D01*
X61270Y42421D01*
X61261Y42426D01*
X61141Y42450D01*
X61021Y42477D01*
X61011Y42476D01*
X61000Y42478D01*
X60970Y42472D01*
X60756Y42455D01*
X60668Y42419D01*
X60620Y42411D01*
X58489Y41528D01*
X55811Y41528D01*
X53337Y42553D01*
X51443Y44447D01*
X50418Y46921D01*
X50418Y49599D01*
X51443Y52073D01*
X53337Y53967D01*
X55811Y54992D01*
X58489Y54992D01*
X60963Y53967D01*
X62472Y52458D01*
X62489Y52445D01*
X62502Y52429D01*
X62596Y52367D01*
X62686Y52300D01*
X62706Y52293D01*
X62724Y52282D01*
X62768Y52272D01*
X62937Y52213D01*
X63050Y52209D01*
X63100Y52198D01*
X66043Y52198D01*
X66054Y52199D01*
X66065Y52198D01*
X66186Y52219D01*
X66306Y52238D01*
X66316Y52242D01*
X66327Y52244D01*
X66436Y52300D01*
X66546Y52353D01*
X66554Y52361D01*
X66563Y52366D01*
X66651Y52451D01*
X66740Y52535D01*
X66745Y52544D01*
X66753Y52552D01*
X66811Y52660D01*
X66872Y52765D01*
X66874Y52776D01*
X66879Y52786D01*
X66903Y52906D01*
X66930Y53025D01*
X66929Y53036D01*
X66931Y53046D01*
X66925Y53078D01*
X66925Y53080D01*
X66928Y53094D01*
X66928Y55949D01*
X67953Y58423D01*
X69847Y60317D01*
X72321Y61342D01*
X74999Y61342D01*
X77473Y60317D01*
X78982Y58808D01*
X78999Y58795D01*
X79012Y58779D01*
X79106Y58717D01*
X79196Y58650D01*
X79216Y58643D01*
X79234Y58632D01*
X79278Y58622D01*
X79447Y58563D01*
X79560Y58559D01*
X79610Y58548D01*
X81731Y58548D01*
X81751Y58551D01*
X81772Y58549D01*
X81883Y58571D01*
X81994Y58588D01*
X82012Y58597D01*
X82033Y58601D01*
X82072Y58625D01*
X82233Y58703D01*
X82315Y58780D01*
X82359Y58808D01*
X84639Y61088D01*
X94341Y61088D01*
X96875Y58554D01*
X96892Y58541D01*
X96905Y58525D01*
X96999Y58463D01*
X97089Y58396D01*
X97109Y58389D01*
X97126Y58378D01*
X97171Y58368D01*
X97340Y58309D01*
X97453Y58305D01*
X97503Y58294D01*
X98128Y58294D01*
X98149Y58297D01*
X98170Y58295D01*
X98280Y58317D01*
X98391Y58334D01*
X98410Y58343D01*
X98430Y58347D01*
X98469Y58371D01*
X98630Y58449D01*
X98713Y58526D01*
X98756Y58554D01*
X108629Y68427D01*
X111196Y70994D01*
X148864Y70994D01*
X148874Y70995D01*
X148885Y70994D01*
X149005Y71015D01*
X149127Y71034D01*
X149136Y71038D01*
X149146Y71040D01*
X149255Y71096D01*
X149366Y71149D01*
X149374Y71157D01*
X149383Y71161D01*
X149470Y71247D01*
X149560Y71331D01*
X149565Y71340D01*
X149573Y71347D01*
X149631Y71455D01*
X149692Y71561D01*
X149694Y71572D01*
X149699Y71581D01*
X149723Y71701D01*
X149750Y71821D01*
X149749Y71831D01*
X149751Y71842D01*
X149746Y71872D01*
X149728Y72086D01*
X149693Y72174D01*
X149684Y72222D01*
X148798Y74361D01*
X148798Y77040D01*
X149823Y79514D01*
X151717Y81407D01*
X154191Y82432D01*
X156869Y82432D01*
X159343Y81407D01*
X160353Y80398D01*
X160369Y80385D01*
X160383Y80369D01*
X160476Y80307D01*
X160567Y80240D01*
X160586Y80233D01*
X160604Y80222D01*
X160648Y80212D01*
X160818Y80153D01*
X160930Y80149D01*
X160981Y80138D01*
X163807Y80138D01*
X163818Y80139D01*
X163828Y80138D01*
X163949Y80159D01*
X164070Y80178D01*
X164079Y80182D01*
X164090Y80184D01*
X164199Y80240D01*
X164309Y80293D01*
X164317Y80301D01*
X164326Y80305D01*
X164414Y80391D01*
X164503Y80475D01*
X164509Y80484D01*
X164516Y80491D01*
X164575Y80599D01*
X164635Y80705D01*
X164638Y80716D01*
X164643Y80725D01*
X164667Y80845D01*
X164693Y80965D01*
X164692Y80976D01*
X164694Y80986D01*
X164689Y81017D01*
X164673Y81211D01*
X164673Y83934D01*
X165698Y86408D01*
X167592Y88302D01*
X170066Y89327D01*
X172744Y89327D01*
X175218Y88302D01*
X176727Y86793D01*
X176739Y86785D01*
X176746Y86776D01*
X176751Y86773D01*
X176757Y86764D01*
X176851Y86702D01*
X176941Y86635D01*
X176961Y86628D01*
X176978Y86617D01*
X177023Y86607D01*
X177192Y86548D01*
X177305Y86544D01*
X177355Y86533D01*
X180926Y86533D01*
X180947Y86536D01*
X180968Y86534D01*
X181078Y86556D01*
X181189Y86573D01*
X181208Y86582D01*
X181229Y86586D01*
X181267Y86610D01*
X181428Y86688D01*
X181511Y86765D01*
X181554Y86793D01*
X184207Y89445D01*
X184213Y89454D01*
X184221Y89460D01*
X184291Y89560D01*
X184364Y89659D01*
X184368Y89669D01*
X184374Y89678D01*
X184411Y89795D01*
X184452Y89910D01*
X184452Y89921D01*
X184455Y89931D01*
X184457Y90053D01*
X184461Y90176D01*
X184458Y90186D01*
X184458Y90197D01*
X184423Y90314D01*
X184391Y90432D01*
X184385Y90441D01*
X184382Y90451D01*
X184314Y90553D01*
X184248Y90657D01*
X184240Y90664D01*
X184234Y90672D01*
X184209Y90690D01*
X184046Y90829D01*
X183958Y90866D01*
X183918Y90894D01*
X181607Y91851D01*
X179713Y93745D01*
X178688Y96219D01*
X178688Y96520D01*
X178673Y96622D01*
X178665Y96724D01*
X178653Y96752D01*
X178648Y96783D01*
X178604Y96875D01*
X178566Y96971D01*
X178546Y96994D01*
X178533Y97022D01*
X178463Y97097D01*
X178398Y97177D01*
X178372Y97194D01*
X178351Y97216D01*
X178262Y97267D01*
X178177Y97324D01*
X178153Y97330D01*
X178121Y97348D01*
X177861Y97406D01*
X177823Y97403D01*
X177800Y97408D01*
X177731Y97408D01*
X175257Y98433D01*
X173363Y100327D01*
X172338Y102801D01*
X172338Y105597D01*
X172340Y105603D01*
X172338Y105619D01*
X172338Y105656D01*
X172332Y105698D01*
X172330Y105725D01*
X172323Y105847D01*
X172319Y105857D01*
X172318Y105868D01*
X172299Y105915D01*
X172298Y105919D01*
X172294Y105929D01*
X172272Y105982D01*
X172230Y106096D01*
X172223Y106104D01*
X172219Y106115D01*
X172141Y106210D01*
X172067Y106306D01*
X172058Y106312D01*
X172051Y106321D01*
X171949Y106389D01*
X171850Y106459D01*
X171839Y106462D01*
X171830Y106468D01*
X171799Y106475D01*
X171597Y106541D01*
X171512Y106542D01*
X171511Y106542D01*
X171508Y106542D01*
X171501Y106542D01*
X171453Y106552D01*
X92378Y106552D01*
X92357Y106549D01*
X92336Y106551D01*
X92226Y106529D01*
X92115Y106512D01*
X92096Y106503D01*
X92075Y106499D01*
X92037Y106475D01*
X91876Y106397D01*
X91793Y106320D01*
X91750Y106292D01*
X66682Y81224D01*
X66669Y81207D01*
X66653Y81194D01*
X66591Y81101D01*
X66524Y81010D01*
X66517Y80990D01*
X66506Y80973D01*
X66496Y80928D01*
X66437Y80759D01*
X66433Y80647D01*
X66422Y80596D01*
X66422Y78462D01*
X65397Y75988D01*
X63503Y74094D01*
X61029Y73069D01*
X58351Y73069D01*
X55877Y74094D01*
X53983Y75988D01*
X52958Y78462D01*
X52958Y81140D01*
X53983Y83614D01*
X54136Y83768D01*
X54197Y83850D01*
X54264Y83929D01*
X54276Y83957D01*
X54294Y83982D01*
X54328Y84079D01*
X54368Y84173D01*
X54371Y84204D01*
X54381Y84233D01*
X54385Y84335D01*
X54396Y84437D01*
X54390Y84468D01*
X54391Y84498D01*
X54364Y84597D01*
X54343Y84698D01*
X54331Y84718D01*
X54321Y84755D01*
X54178Y84979D01*
X54149Y85004D01*
X54136Y85024D01*
X54028Y85132D01*
X53003Y87606D01*
X53003Y90284D01*
X54028Y92758D01*
X54622Y93352D01*
X54683Y93434D01*
X54749Y93513D01*
X54761Y93541D01*
X54780Y93566D01*
X54813Y93663D01*
X54854Y93757D01*
X54857Y93788D01*
X54867Y93817D01*
X54870Y93919D01*
X54881Y94022D01*
X54875Y94052D01*
X54876Y94083D01*
X54849Y94182D01*
X54829Y94282D01*
X54816Y94302D01*
X54806Y94339D01*
X54664Y94563D01*
X54635Y94588D01*
X54622Y94608D01*
X53983Y95247D01*
X52958Y97721D01*
X52958Y100399D01*
X53983Y102873D01*
X55877Y104767D01*
X58351Y105792D01*
X60485Y105792D01*
X60506Y105795D01*
X60527Y105793D01*
X60637Y105815D01*
X60748Y105832D01*
X60767Y105841D01*
X60787Y105845D01*
X60826Y105869D01*
X60987Y105947D01*
X61070Y106024D01*
X61113Y106052D01*
X76855Y121794D01*
X419715Y121794D01*
X433899Y107610D01*
X433973Y107555D01*
X434042Y107494D01*
X434079Y107477D01*
X434112Y107453D01*
X434200Y107422D01*
X434284Y107384D01*
X434325Y107379D01*
X434364Y107365D01*
X434456Y107362D01*
X434547Y107350D01*
X434588Y107357D01*
X434629Y107356D01*
X434718Y107380D01*
X434809Y107396D01*
X434846Y107415D01*
X434886Y107426D01*
X434964Y107475D01*
X435046Y107518D01*
X435075Y107546D01*
X435110Y107569D01*
X435170Y107639D01*
X435236Y107704D01*
X435255Y107740D01*
X435282Y107771D01*
X435318Y107856D01*
X435362Y107937D01*
X435370Y107978D01*
X435386Y108016D01*
X435396Y108108D01*
X435414Y108198D01*
X435409Y108229D01*
X435414Y108280D01*
X435362Y108541D01*
X435351Y108558D01*
X435347Y108578D01*
X434651Y110258D01*
X434651Y113262D01*
X435800Y116036D01*
X437924Y118160D01*
X440698Y119309D01*
X443702Y119309D01*
X446476Y118160D01*
X448600Y116036D01*
X449749Y113262D01*
X449749Y110258D01*
X448600Y107484D01*
X446476Y105360D01*
X444897Y104707D01*
X444818Y104659D01*
X444735Y104619D01*
X444705Y104591D01*
X444670Y104569D01*
X444608Y104500D01*
X444541Y104437D01*
X444520Y104402D01*
X444493Y104371D01*
X444455Y104287D01*
X444409Y104207D01*
X444400Y104166D01*
X444383Y104129D01*
X444371Y104037D01*
X444351Y103947D01*
X444354Y103906D01*
X444349Y103865D01*
X444365Y103774D01*
X444373Y103682D01*
X444388Y103644D01*
X444395Y103603D01*
X444437Y103521D01*
X444472Y103435D01*
X444498Y103403D01*
X444517Y103367D01*
X444581Y103301D01*
X444639Y103229D01*
X444674Y103206D01*
X444702Y103177D01*
X444783Y103133D01*
X444860Y103082D01*
X444891Y103075D01*
X444936Y103050D01*
X445197Y102999D01*
X445217Y103002D01*
X445237Y102998D01*
X469163Y102998D01*
X469254Y103012D01*
X469346Y103017D01*
X469385Y103031D01*
X469426Y103038D01*
X469509Y103078D01*
X469595Y103110D01*
X469628Y103135D01*
X469665Y103153D01*
X469732Y103216D01*
X469805Y103273D01*
X469829Y103306D01*
X469859Y103335D01*
X469905Y103415D01*
X469958Y103490D01*
X469971Y103530D01*
X469991Y103565D01*
X470011Y103655D01*
X470039Y103743D01*
X470040Y103785D01*
X470049Y103825D01*
X470041Y103917D01*
X470042Y104009D01*
X470031Y104049D01*
X470027Y104090D01*
X469993Y104175D01*
X469966Y104264D01*
X469944Y104298D01*
X469928Y104337D01*
X469870Y104408D01*
X469819Y104485D01*
X469793Y104503D01*
X469761Y104543D01*
X469540Y104690D01*
X469519Y104695D01*
X469503Y104707D01*
X467924Y105360D01*
X465800Y107484D01*
X464651Y110258D01*
X464651Y113262D01*
X465800Y116036D01*
X467924Y118160D01*
X470698Y119309D01*
X473702Y119309D01*
X476476Y118160D01*
X478600Y116036D01*
X479749Y113262D01*
X479749Y110258D01*
X478600Y107484D01*
X476476Y105360D01*
X474897Y104707D01*
X474818Y104659D01*
X474735Y104619D01*
X474705Y104591D01*
X474670Y104569D01*
X474608Y104500D01*
X474541Y104437D01*
X474520Y104402D01*
X474493Y104371D01*
X474455Y104287D01*
X474409Y104207D01*
X474400Y104166D01*
X474383Y104129D01*
X474371Y104037D01*
X474351Y103947D01*
X474354Y103906D01*
X474349Y103865D01*
X474365Y103774D01*
X474373Y103682D01*
X474388Y103644D01*
X474395Y103603D01*
X474437Y103521D01*
X474472Y103435D01*
X474498Y103403D01*
X474517Y103367D01*
X474581Y103301D01*
X474639Y103229D01*
X474674Y103206D01*
X474702Y103177D01*
X474783Y103133D01*
X474860Y103082D01*
X474891Y103075D01*
X474936Y103050D01*
X475197Y102999D01*
X475217Y103002D01*
X475237Y102998D01*
X490761Y102998D01*
X490782Y103001D01*
X490803Y102999D01*
X490913Y103021D01*
X491024Y103038D01*
X491043Y103047D01*
X491063Y103051D01*
X491102Y103075D01*
X491263Y103153D01*
X491346Y103230D01*
X491389Y103258D01*
X506369Y118238D01*
X762265Y118238D01*
X762327Y118247D01*
X762389Y118246D01*
X762457Y118267D01*
X762528Y118278D01*
X762584Y118304D01*
X762643Y118322D01*
X762703Y118362D01*
X762767Y118393D01*
X762813Y118436D01*
X762864Y118470D01*
X762892Y118509D01*
X762962Y118575D01*
X763068Y118761D01*
X763086Y118786D01*
X764148Y121350D01*
X765233Y122435D01*
X765263Y122476D01*
X765301Y122512D01*
X765342Y122583D01*
X765390Y122649D01*
X765407Y122698D01*
X765433Y122742D01*
X765451Y122822D01*
X765478Y122900D01*
X765479Y122952D01*
X765491Y123002D01*
X765484Y123084D01*
X765487Y123166D01*
X765473Y123215D01*
X765469Y123267D01*
X765439Y123343D01*
X765417Y123422D01*
X765389Y123466D01*
X765370Y123514D01*
X765318Y123577D01*
X765274Y123646D01*
X765235Y123680D01*
X765202Y123720D01*
X765134Y123765D01*
X765072Y123818D01*
X765024Y123839D01*
X764981Y123867D01*
X764931Y123879D01*
X764827Y123923D01*
X764649Y123941D01*
X764605Y123951D01*
X3937Y123951D01*
X3835Y123936D01*
X3733Y123928D01*
X3705Y123916D01*
X3674Y123911D01*
X3582Y123867D01*
X3486Y123829D01*
X3463Y123809D01*
X3435Y123796D01*
X3360Y123726D01*
X3280Y123661D01*
X3263Y123635D01*
X3241Y123614D01*
X3190Y123525D01*
X3133Y123440D01*
X3127Y123416D01*
X3109Y123384D01*
X3051Y123124D01*
X3054Y123086D01*
X3049Y123063D01*
X3049Y3937D01*
X3064Y3835D01*
X3072Y3733D01*
X3084Y3705D01*
X3089Y3674D01*
X3133Y3582D01*
X3171Y3486D01*
X3191Y3463D01*
X3204Y3435D01*
X3274Y3360D01*
X3339Y3280D01*
X3365Y3263D01*
X3386Y3241D01*
X3475Y3190D01*
X3560Y3133D01*
X3584Y3127D01*
X3616Y3109D01*
X3876Y3051D01*
X3914Y3054D01*
X3937Y3049D01*
X370905Y3049D01*
X370956Y3056D01*
G37*
G36*
X1202470Y3064D02*
X1202470Y3064D01*
X1202572Y3072D01*
X1202601Y3084D01*
X1202632Y3089D01*
X1202724Y3133D01*
X1202819Y3171D01*
X1202843Y3191D01*
X1202871Y3204D01*
X1202946Y3274D01*
X1203025Y3338D01*
X1203043Y3364D01*
X1203066Y3386D01*
X1203116Y3474D01*
X1203173Y3559D01*
X1203178Y3583D01*
X1203198Y3616D01*
X1203255Y3876D01*
X1203252Y3913D01*
X1203257Y3936D01*
X1203335Y53483D01*
X1203330Y53518D01*
X1203333Y53553D01*
X1203311Y53649D01*
X1203296Y53746D01*
X1203281Y53778D01*
X1203273Y53812D01*
X1203223Y53897D01*
X1203181Y53986D01*
X1203157Y54011D01*
X1203139Y54042D01*
X1203067Y54108D01*
X1203000Y54180D01*
X1202969Y54198D01*
X1202943Y54221D01*
X1202854Y54264D01*
X1202769Y54312D01*
X1202735Y54320D01*
X1202703Y54335D01*
X1202606Y54349D01*
X1202510Y54371D01*
X1202475Y54368D01*
X1202440Y54373D01*
X1202343Y54357D01*
X1202245Y54349D01*
X1202212Y54336D01*
X1202177Y54331D01*
X1202089Y54287D01*
X1201998Y54251D01*
X1201971Y54229D01*
X1201939Y54213D01*
X1201903Y54174D01*
X1201791Y54084D01*
X1201714Y53968D01*
X1201678Y53929D01*
X1198685Y48745D01*
X1192578Y43620D01*
X1185086Y40893D01*
X1177114Y40893D01*
X1169622Y43620D01*
X1163515Y48744D01*
X1159529Y55649D01*
X1158145Y63500D01*
X1159529Y71351D01*
X1163515Y78255D01*
X1169622Y83380D01*
X1177114Y86107D01*
X1185086Y86107D01*
X1192578Y83380D01*
X1198685Y78256D01*
X1201709Y73017D01*
X1201731Y72990D01*
X1201745Y72960D01*
X1201813Y72887D01*
X1201875Y72809D01*
X1201903Y72790D01*
X1201926Y72765D01*
X1202013Y72716D01*
X1202095Y72660D01*
X1202127Y72650D01*
X1202157Y72633D01*
X1202254Y72611D01*
X1202349Y72582D01*
X1202383Y72582D01*
X1202416Y72575D01*
X1202516Y72583D01*
X1202615Y72583D01*
X1202647Y72593D01*
X1202681Y72596D01*
X1202774Y72633D01*
X1202869Y72663D01*
X1202897Y72682D01*
X1202928Y72695D01*
X1203005Y72757D01*
X1203088Y72814D01*
X1203108Y72841D01*
X1203135Y72862D01*
X1203190Y72945D01*
X1203252Y73023D01*
X1203264Y73055D01*
X1203282Y73083D01*
X1203294Y73134D01*
X1203347Y73272D01*
X1203355Y73408D01*
X1203367Y73460D01*
X1203445Y123062D01*
X1203430Y123164D01*
X1203421Y123267D01*
X1203410Y123295D01*
X1203406Y123325D01*
X1203361Y123417D01*
X1203322Y123514D01*
X1203303Y123537D01*
X1203290Y123564D01*
X1203220Y123640D01*
X1203155Y123720D01*
X1203130Y123737D01*
X1203109Y123759D01*
X1203020Y123810D01*
X1202934Y123867D01*
X1202911Y123872D01*
X1202879Y123891D01*
X1202619Y123949D01*
X1202581Y123946D01*
X1202557Y123951D01*
X1165077Y123951D01*
X1165026Y123944D01*
X1164974Y123945D01*
X1164895Y123924D01*
X1164814Y123911D01*
X1164768Y123889D01*
X1164718Y123875D01*
X1164649Y123832D01*
X1164575Y123796D01*
X1164537Y123760D01*
X1164494Y123733D01*
X1164441Y123670D01*
X1164381Y123614D01*
X1164355Y123569D01*
X1164322Y123530D01*
X1164289Y123455D01*
X1164249Y123384D01*
X1164237Y123333D01*
X1164217Y123286D01*
X1164209Y123204D01*
X1164191Y123124D01*
X1164195Y123073D01*
X1164190Y123021D01*
X1164206Y122941D01*
X1164213Y122859D01*
X1164232Y122811D01*
X1164242Y122761D01*
X1164270Y122717D01*
X1164312Y122612D01*
X1164425Y122473D01*
X1164449Y122435D01*
X1164806Y122078D01*
X1165911Y120557D01*
X1166764Y118883D01*
X1167345Y117096D01*
X1167506Y116077D01*
X1156589Y116077D01*
X1156488Y116062D01*
X1156385Y116053D01*
X1156357Y116042D01*
X1156326Y116037D01*
X1156234Y115993D01*
X1156139Y115954D01*
X1156115Y115935D01*
X1156087Y115922D01*
X1156012Y115852D01*
X1155932Y115787D01*
X1155915Y115761D01*
X1155893Y115740D01*
X1155842Y115651D01*
X1155785Y115566D01*
X1155780Y115542D01*
X1155761Y115510D01*
X1155703Y115250D01*
X1155706Y115212D01*
X1155701Y115189D01*
X1155701Y114299D01*
X1154811Y114299D01*
X1154709Y114284D01*
X1154607Y114275D01*
X1154579Y114264D01*
X1154548Y114259D01*
X1154456Y114215D01*
X1154360Y114176D01*
X1154337Y114157D01*
X1154309Y114144D01*
X1154234Y114074D01*
X1154154Y114009D01*
X1154137Y113983D01*
X1154115Y113962D01*
X1154064Y113873D01*
X1154007Y113788D01*
X1154001Y113764D01*
X1153983Y113731D01*
X1153925Y113472D01*
X1153928Y113434D01*
X1153923Y113411D01*
X1153923Y102494D01*
X1152904Y102655D01*
X1151117Y103236D01*
X1149443Y104089D01*
X1147922Y105194D01*
X1146594Y106522D01*
X1145489Y108043D01*
X1144636Y109717D01*
X1144166Y111164D01*
X1144127Y111241D01*
X1144097Y111322D01*
X1144068Y111359D01*
X1144047Y111402D01*
X1143987Y111464D01*
X1143934Y111532D01*
X1143895Y111559D01*
X1143863Y111594D01*
X1143787Y111635D01*
X1143717Y111685D01*
X1143672Y111699D01*
X1143630Y111722D01*
X1143546Y111740D01*
X1143464Y111766D01*
X1143416Y111767D01*
X1143370Y111776D01*
X1143284Y111768D01*
X1143198Y111769D01*
X1143152Y111756D01*
X1143105Y111751D01*
X1143026Y111718D01*
X1142943Y111693D01*
X1142904Y111667D01*
X1142860Y111649D01*
X1142794Y111593D01*
X1142722Y111546D01*
X1142702Y111517D01*
X1142656Y111478D01*
X1142512Y111255D01*
X1142507Y111239D01*
X1142500Y111229D01*
X1140852Y107250D01*
X1137350Y103748D01*
X1132776Y101853D01*
X1127824Y101853D01*
X1123250Y103748D01*
X1119748Y107250D01*
X1117853Y111824D01*
X1117853Y116776D01*
X1119748Y121350D01*
X1120833Y122435D01*
X1120863Y122476D01*
X1120901Y122512D01*
X1120942Y122583D01*
X1120990Y122649D01*
X1121007Y122698D01*
X1121033Y122742D01*
X1121051Y122822D01*
X1121078Y122900D01*
X1121079Y122952D01*
X1121091Y123002D01*
X1121084Y123084D01*
X1121087Y123166D01*
X1121073Y123215D01*
X1121069Y123267D01*
X1121039Y123343D01*
X1121017Y123422D01*
X1120989Y123466D01*
X1120970Y123514D01*
X1120918Y123577D01*
X1120874Y123646D01*
X1120835Y123680D01*
X1120802Y123720D01*
X1120734Y123765D01*
X1120672Y123818D01*
X1120624Y123839D01*
X1120581Y123867D01*
X1120531Y123879D01*
X1120427Y123923D01*
X1120249Y123941D01*
X1120205Y123951D01*
X1089595Y123951D01*
X1089544Y123944D01*
X1089493Y123945D01*
X1089414Y123924D01*
X1089333Y123911D01*
X1089286Y123889D01*
X1089236Y123875D01*
X1089167Y123831D01*
X1089093Y123796D01*
X1089056Y123761D01*
X1089012Y123733D01*
X1088959Y123670D01*
X1088899Y123614D01*
X1088873Y123570D01*
X1088840Y123530D01*
X1088808Y123455D01*
X1088767Y123384D01*
X1088756Y123333D01*
X1088736Y123286D01*
X1088727Y123204D01*
X1088709Y123124D01*
X1088714Y123073D01*
X1088708Y123021D01*
X1088724Y122941D01*
X1088731Y122859D01*
X1088750Y122811D01*
X1088760Y122761D01*
X1088788Y122717D01*
X1088830Y122612D01*
X1088943Y122473D01*
X1088967Y122435D01*
X1090052Y121350D01*
X1091947Y116776D01*
X1091947Y111824D01*
X1090052Y107250D01*
X1086550Y103748D01*
X1081976Y101853D01*
X1077024Y101853D01*
X1072450Y103748D01*
X1068948Y107250D01*
X1067053Y111824D01*
X1067053Y116776D01*
X1068948Y121350D01*
X1070033Y122435D01*
X1070063Y122476D01*
X1070101Y122512D01*
X1070142Y122583D01*
X1070190Y122649D01*
X1070207Y122698D01*
X1070233Y122742D01*
X1070251Y122822D01*
X1070278Y122900D01*
X1070279Y122952D01*
X1070291Y123002D01*
X1070284Y123084D01*
X1070287Y123166D01*
X1070273Y123215D01*
X1070269Y123267D01*
X1070239Y123343D01*
X1070217Y123422D01*
X1070189Y123466D01*
X1070170Y123514D01*
X1070118Y123577D01*
X1070074Y123646D01*
X1070035Y123680D01*
X1070002Y123720D01*
X1069934Y123765D01*
X1069872Y123818D01*
X1069824Y123839D01*
X1069781Y123867D01*
X1069731Y123879D01*
X1069627Y123923D01*
X1069449Y123941D01*
X1069405Y123951D01*
X1051495Y123951D01*
X1051444Y123944D01*
X1051393Y123945D01*
X1051314Y123924D01*
X1051233Y123911D01*
X1051186Y123889D01*
X1051136Y123875D01*
X1051067Y123831D01*
X1050993Y123796D01*
X1050956Y123761D01*
X1050912Y123733D01*
X1050859Y123670D01*
X1050799Y123614D01*
X1050773Y123570D01*
X1050740Y123530D01*
X1050708Y123455D01*
X1050667Y123384D01*
X1050656Y123333D01*
X1050636Y123286D01*
X1050627Y123204D01*
X1050609Y123124D01*
X1050614Y123073D01*
X1050608Y123021D01*
X1050624Y122941D01*
X1050631Y122859D01*
X1050650Y122811D01*
X1050660Y122761D01*
X1050688Y122717D01*
X1050730Y122612D01*
X1050843Y122473D01*
X1050867Y122435D01*
X1051952Y121350D01*
X1053847Y116776D01*
X1053847Y111824D01*
X1051952Y107250D01*
X1048450Y103748D01*
X1043876Y101853D01*
X1038924Y101853D01*
X1036360Y102915D01*
X1036300Y102930D01*
X1036243Y102955D01*
X1036171Y102962D01*
X1036102Y102979D01*
X1036040Y102976D01*
X1035978Y102982D01*
X1035908Y102968D01*
X1035836Y102964D01*
X1035778Y102942D01*
X1035717Y102930D01*
X1035677Y102904D01*
X1035587Y102871D01*
X1035418Y102740D01*
X1035392Y102723D01*
X1026521Y93852D01*
X991509Y93852D01*
X988942Y96419D01*
X984149Y101212D01*
X984132Y101225D01*
X984119Y101241D01*
X984025Y101303D01*
X983935Y101370D01*
X983915Y101377D01*
X983898Y101388D01*
X983853Y101398D01*
X983684Y101457D01*
X983571Y101461D01*
X983521Y101472D01*
X898729Y101472D01*
X898678Y101465D01*
X898626Y101466D01*
X898547Y101445D01*
X898466Y101432D01*
X898420Y101410D01*
X898370Y101396D01*
X898301Y101352D01*
X898227Y101317D01*
X898189Y101282D01*
X898145Y101254D01*
X898092Y101191D01*
X898032Y101135D01*
X898007Y101091D01*
X897973Y101051D01*
X897941Y100976D01*
X897900Y100905D01*
X897889Y100854D01*
X897869Y100807D01*
X897860Y100725D01*
X897843Y100645D01*
X897847Y100594D01*
X897842Y100542D01*
X897858Y100462D01*
X897864Y100380D01*
X897883Y100332D01*
X897894Y100282D01*
X897921Y100238D01*
X897963Y100133D01*
X898076Y99994D01*
X898101Y99956D01*
X904340Y93717D01*
X904348Y93711D01*
X904355Y93702D01*
X904455Y93632D01*
X904554Y93559D01*
X904564Y93556D01*
X904572Y93550D01*
X904689Y93512D01*
X904805Y93472D01*
X904815Y93471D01*
X904825Y93468D01*
X904948Y93467D01*
X905070Y93463D01*
X905081Y93465D01*
X905091Y93465D01*
X905209Y93500D01*
X905327Y93533D01*
X905336Y93538D01*
X905346Y93541D01*
X905448Y93610D01*
X905551Y93675D01*
X905558Y93683D01*
X905567Y93689D01*
X905585Y93715D01*
X905723Y93878D01*
X905761Y93966D01*
X905788Y94005D01*
X905912Y94304D01*
X907966Y96358D01*
X910648Y97469D01*
X913552Y97469D01*
X916234Y96358D01*
X918288Y94304D01*
X919399Y91622D01*
X919399Y88718D01*
X919275Y88419D01*
X919272Y88409D01*
X919267Y88400D01*
X919240Y88279D01*
X919211Y88161D01*
X919212Y88150D01*
X919209Y88140D01*
X919219Y88018D01*
X919226Y87896D01*
X919230Y87886D01*
X919231Y87875D01*
X919276Y87762D01*
X919319Y87647D01*
X919326Y87638D01*
X919330Y87628D01*
X919408Y87533D01*
X919482Y87436D01*
X919491Y87430D01*
X919497Y87422D01*
X919600Y87353D01*
X919700Y87284D01*
X919710Y87280D01*
X919719Y87275D01*
X919749Y87268D01*
X919953Y87202D01*
X920048Y87201D01*
X920095Y87191D01*
X934105Y87191D01*
X934115Y87192D01*
X934125Y87191D01*
X934246Y87212D01*
X934367Y87231D01*
X934377Y87235D01*
X934387Y87237D01*
X934496Y87293D01*
X934607Y87346D01*
X934614Y87353D01*
X934624Y87358D01*
X934711Y87444D01*
X934801Y87528D01*
X934806Y87537D01*
X934814Y87544D01*
X934872Y87652D01*
X934933Y87758D01*
X934935Y87769D01*
X934940Y87778D01*
X934964Y87898D01*
X934991Y88018D01*
X934990Y88028D01*
X934992Y88039D01*
X934987Y88070D01*
X934969Y88283D01*
X934934Y88371D01*
X934925Y88419D01*
X934801Y88718D01*
X934801Y91622D01*
X935912Y94304D01*
X937966Y96358D01*
X940648Y97469D01*
X943552Y97469D01*
X946234Y96358D01*
X948288Y94304D01*
X949399Y91622D01*
X949399Y89916D01*
X949414Y89814D01*
X949422Y89712D01*
X949434Y89684D01*
X949439Y89653D01*
X949483Y89561D01*
X949521Y89465D01*
X949541Y89442D01*
X949554Y89414D01*
X949624Y89339D01*
X949689Y89259D01*
X949715Y89242D01*
X949736Y89220D01*
X949825Y89169D01*
X949910Y89112D01*
X949934Y89106D01*
X949966Y89088D01*
X950226Y89030D01*
X950264Y89033D01*
X950287Y89028D01*
X1096551Y89028D01*
X1096572Y89031D01*
X1096593Y89029D01*
X1096703Y89051D01*
X1096814Y89068D01*
X1096833Y89077D01*
X1096853Y89081D01*
X1096892Y89105D01*
X1097053Y89183D01*
X1097136Y89260D01*
X1097179Y89288D01*
X1099178Y91287D01*
X1099191Y91304D01*
X1099207Y91317D01*
X1099269Y91411D01*
X1099336Y91501D01*
X1099343Y91521D01*
X1099354Y91538D01*
X1099364Y91583D01*
X1099423Y91752D01*
X1099427Y91865D01*
X1099438Y91915D01*
X1099438Y94049D01*
X1100463Y96523D01*
X1102357Y98417D01*
X1104831Y99442D01*
X1107509Y99442D01*
X1109983Y98417D01*
X1111877Y96523D01*
X1112902Y94049D01*
X1112902Y91371D01*
X1111877Y88897D01*
X1109983Y87003D01*
X1107509Y85978D01*
X1105375Y85978D01*
X1105354Y85975D01*
X1105333Y85977D01*
X1105223Y85955D01*
X1105112Y85938D01*
X1105093Y85929D01*
X1105073Y85925D01*
X1105034Y85901D01*
X1104873Y85823D01*
X1104790Y85746D01*
X1104747Y85718D01*
X1100181Y81152D01*
X1056637Y81152D01*
X1056626Y81151D01*
X1056615Y81152D01*
X1056494Y81131D01*
X1056374Y81112D01*
X1056364Y81108D01*
X1056353Y81106D01*
X1056244Y81050D01*
X1056134Y80997D01*
X1056126Y80989D01*
X1056117Y80984D01*
X1056029Y80899D01*
X1055940Y80815D01*
X1055935Y80806D01*
X1055927Y80798D01*
X1055869Y80690D01*
X1055808Y80585D01*
X1055806Y80574D01*
X1055801Y80564D01*
X1055777Y80444D01*
X1055750Y80325D01*
X1055751Y80314D01*
X1055749Y80304D01*
X1055755Y80272D01*
X1055755Y80270D01*
X1055752Y80256D01*
X1055752Y77401D01*
X1054727Y74927D01*
X1052833Y73033D01*
X1050359Y72008D01*
X1047681Y72008D01*
X1045207Y73033D01*
X1043313Y74927D01*
X1043195Y75211D01*
X1043163Y75264D01*
X1043140Y75322D01*
X1043095Y75377D01*
X1043058Y75439D01*
X1043012Y75480D01*
X1042973Y75528D01*
X1042913Y75568D01*
X1042860Y75615D01*
X1042803Y75641D01*
X1042752Y75675D01*
X1042705Y75686D01*
X1042618Y75725D01*
X1042405Y75752D01*
X1042375Y75759D01*
X906131Y75759D01*
X890838Y91052D01*
X890821Y91065D01*
X890808Y91081D01*
X890714Y91143D01*
X890624Y91210D01*
X890604Y91217D01*
X890587Y91228D01*
X890542Y91238D01*
X890373Y91297D01*
X890260Y91301D01*
X890210Y91312D01*
X857979Y91312D01*
X857958Y91309D01*
X857937Y91311D01*
X857827Y91289D01*
X857716Y91272D01*
X857697Y91263D01*
X857677Y91259D01*
X857638Y91235D01*
X857477Y91157D01*
X857394Y91080D01*
X857351Y91052D01*
X853293Y86994D01*
X756391Y86994D01*
X756329Y86985D01*
X756267Y86986D01*
X756199Y86965D01*
X756128Y86954D01*
X756072Y86927D01*
X756012Y86910D01*
X755953Y86870D01*
X755888Y86839D01*
X755843Y86796D01*
X755792Y86762D01*
X755764Y86723D01*
X755694Y86657D01*
X755588Y86471D01*
X755570Y86446D01*
X755007Y85087D01*
X753113Y83193D01*
X750639Y82168D01*
X747961Y82168D01*
X745487Y83193D01*
X743978Y84702D01*
X743961Y84715D01*
X743948Y84731D01*
X743854Y84793D01*
X743764Y84860D01*
X743744Y84867D01*
X743726Y84878D01*
X743682Y84888D01*
X743513Y84947D01*
X743400Y84951D01*
X743350Y84962D01*
X509795Y84962D01*
X509774Y84959D01*
X509753Y84961D01*
X509643Y84939D01*
X509532Y84922D01*
X509513Y84913D01*
X509493Y84909D01*
X509454Y84885D01*
X509293Y84807D01*
X509210Y84730D01*
X509167Y84702D01*
X505619Y81155D01*
X505589Y81113D01*
X505551Y81078D01*
X505510Y81007D01*
X505462Y80941D01*
X505445Y80892D01*
X505419Y80847D01*
X505401Y80767D01*
X505374Y80690D01*
X505372Y80638D01*
X505361Y80588D01*
X505368Y80506D01*
X505365Y80424D01*
X505379Y80374D01*
X505383Y80323D01*
X505413Y80247D01*
X505435Y80167D01*
X505463Y80124D01*
X505482Y80076D01*
X505534Y80012D01*
X505578Y79943D01*
X505617Y79910D01*
X505649Y79870D01*
X505718Y79824D01*
X505780Y79771D01*
X505828Y79751D01*
X505871Y79722D01*
X505921Y79711D01*
X506025Y79667D01*
X506203Y79648D01*
X506247Y79638D01*
X752478Y79638D01*
X752539Y79647D01*
X752601Y79647D01*
X752670Y79667D01*
X752741Y79678D01*
X752797Y79705D01*
X752856Y79723D01*
X752916Y79762D01*
X752980Y79794D01*
X753026Y79836D01*
X753077Y79871D01*
X753105Y79910D01*
X753175Y79975D01*
X753281Y80161D01*
X753299Y80187D01*
X753753Y81283D01*
X755647Y83177D01*
X758121Y84202D01*
X760799Y84202D01*
X763273Y83177D01*
X765167Y81283D01*
X766192Y78809D01*
X766192Y76131D01*
X765167Y73657D01*
X763273Y71763D01*
X763089Y71687D01*
X763009Y71639D01*
X762926Y71599D01*
X762896Y71571D01*
X762861Y71549D01*
X762800Y71480D01*
X762732Y71417D01*
X762712Y71382D01*
X762684Y71351D01*
X762646Y71267D01*
X762600Y71187D01*
X762591Y71146D01*
X762574Y71109D01*
X762562Y71017D01*
X762542Y70927D01*
X762546Y70886D01*
X762540Y70845D01*
X762556Y70754D01*
X762564Y70662D01*
X762579Y70624D01*
X762586Y70583D01*
X762629Y70501D01*
X762663Y70415D01*
X762689Y70383D01*
X762708Y70347D01*
X762772Y70281D01*
X762831Y70209D01*
X762865Y70186D01*
X762894Y70157D01*
X762975Y70113D01*
X763052Y70062D01*
X763082Y70055D01*
X763127Y70030D01*
X763388Y69979D01*
X763408Y69982D01*
X763428Y69978D01*
X814431Y69978D01*
X845921Y38488D01*
X845938Y38475D01*
X845951Y38459D01*
X846045Y38397D01*
X846135Y38330D01*
X846155Y38323D01*
X846172Y38312D01*
X846217Y38302D01*
X846386Y38243D01*
X846499Y38239D01*
X846549Y38228D01*
X924144Y38228D01*
X924165Y38231D01*
X924186Y38229D01*
X924296Y38251D01*
X924407Y38268D01*
X924426Y38277D01*
X924446Y38281D01*
X924485Y38305D01*
X924646Y38383D01*
X924729Y38460D01*
X924772Y38488D01*
X952198Y65914D01*
X956623Y65914D01*
X956725Y65929D01*
X956827Y65937D01*
X956855Y65949D01*
X956886Y65954D01*
X956978Y65998D01*
X957074Y66036D01*
X957097Y66056D01*
X957125Y66069D01*
X957200Y66139D01*
X957280Y66204D01*
X957297Y66230D01*
X957319Y66251D01*
X957370Y66340D01*
X957427Y66425D01*
X957433Y66449D01*
X957451Y66481D01*
X957509Y66741D01*
X957506Y66779D01*
X957511Y66802D01*
X957511Y67379D01*
X958536Y69853D01*
X960430Y71747D01*
X962904Y72772D01*
X965582Y72772D01*
X968056Y71747D01*
X969950Y69853D01*
X970975Y67379D01*
X970975Y64701D01*
X970513Y63586D01*
X970510Y63576D01*
X970505Y63567D01*
X970478Y63447D01*
X970449Y63328D01*
X970450Y63317D01*
X970447Y63307D01*
X970457Y63185D01*
X970464Y63062D01*
X970468Y63053D01*
X970469Y63042D01*
X970515Y62928D01*
X970558Y62814D01*
X970564Y62805D01*
X970568Y62795D01*
X970646Y62700D01*
X970720Y62603D01*
X970729Y62597D01*
X970736Y62589D01*
X970838Y62521D01*
X970938Y62451D01*
X970948Y62447D01*
X970957Y62442D01*
X970987Y62435D01*
X971191Y62369D01*
X971287Y62368D01*
X971333Y62358D01*
X1137011Y62358D01*
X1139578Y59791D01*
X1175092Y24277D01*
X1175142Y24240D01*
X1175185Y24196D01*
X1175248Y24162D01*
X1175306Y24119D01*
X1175364Y24099D01*
X1175419Y24069D01*
X1175489Y24056D01*
X1175557Y24032D01*
X1175619Y24030D01*
X1175679Y24018D01*
X1175727Y24026D01*
X1175822Y24023D01*
X1176029Y24079D01*
X1176060Y24085D01*
X1178624Y25147D01*
X1183576Y25147D01*
X1188150Y23252D01*
X1191652Y19750D01*
X1193547Y15176D01*
X1193547Y10224D01*
X1191652Y5650D01*
X1190567Y4565D01*
X1190537Y4524D01*
X1190499Y4488D01*
X1190458Y4417D01*
X1190410Y4351D01*
X1190393Y4302D01*
X1190367Y4258D01*
X1190349Y4178D01*
X1190322Y4100D01*
X1190321Y4048D01*
X1190309Y3998D01*
X1190316Y3916D01*
X1190313Y3834D01*
X1190327Y3785D01*
X1190331Y3733D01*
X1190361Y3657D01*
X1190383Y3578D01*
X1190411Y3534D01*
X1190430Y3486D01*
X1190482Y3423D01*
X1190526Y3354D01*
X1190565Y3320D01*
X1190598Y3280D01*
X1190666Y3235D01*
X1190728Y3182D01*
X1190776Y3161D01*
X1190819Y3133D01*
X1190869Y3121D01*
X1190973Y3077D01*
X1191151Y3059D01*
X1191195Y3049D01*
X1202369Y3049D01*
X1202470Y3064D01*
G37*
G36*
X1069456Y3056D02*
X1069456Y3056D01*
X1069507Y3055D01*
X1069586Y3076D01*
X1069667Y3089D01*
X1069714Y3111D01*
X1069764Y3125D01*
X1069833Y3169D01*
X1069907Y3204D01*
X1069944Y3239D01*
X1069988Y3267D01*
X1070041Y3330D01*
X1070101Y3386D01*
X1070127Y3430D01*
X1070160Y3470D01*
X1070192Y3545D01*
X1070233Y3616D01*
X1070244Y3667D01*
X1070264Y3714D01*
X1070273Y3796D01*
X1070291Y3876D01*
X1070286Y3927D01*
X1070292Y3979D01*
X1070276Y4059D01*
X1070269Y4141D01*
X1070250Y4189D01*
X1070240Y4239D01*
X1070212Y4283D01*
X1070170Y4388D01*
X1070057Y4527D01*
X1070033Y4565D01*
X1068948Y5650D01*
X1067053Y10224D01*
X1067053Y15176D01*
X1068948Y19750D01*
X1072450Y23252D01*
X1077024Y25147D01*
X1081976Y25147D01*
X1086550Y23252D01*
X1090052Y19750D01*
X1091700Y15771D01*
X1091745Y15697D01*
X1091781Y15618D01*
X1091813Y15583D01*
X1091838Y15543D01*
X1091902Y15485D01*
X1091960Y15422D01*
X1092001Y15398D01*
X1092036Y15366D01*
X1092115Y15330D01*
X1092189Y15287D01*
X1092235Y15276D01*
X1092278Y15256D01*
X1092364Y15245D01*
X1092448Y15225D01*
X1092495Y15228D01*
X1092542Y15222D01*
X1092627Y15237D01*
X1092713Y15243D01*
X1092757Y15260D01*
X1092804Y15268D01*
X1092880Y15308D01*
X1092961Y15339D01*
X1092998Y15368D01*
X1093040Y15390D01*
X1093102Y15450D01*
X1093170Y15504D01*
X1093187Y15534D01*
X1093230Y15576D01*
X1093357Y15809D01*
X1093360Y15826D01*
X1093366Y15836D01*
X1093836Y17283D01*
X1094689Y18957D01*
X1095794Y20478D01*
X1097122Y21806D01*
X1098643Y22911D01*
X1100317Y23764D01*
X1102104Y24345D01*
X1103123Y24506D01*
X1103123Y13589D01*
X1103138Y13488D01*
X1103146Y13385D01*
X1103158Y13357D01*
X1103163Y13326D01*
X1103207Y13234D01*
X1103245Y13139D01*
X1103265Y13115D01*
X1103278Y13087D01*
X1103348Y13012D01*
X1103413Y12932D01*
X1103439Y12915D01*
X1103460Y12893D01*
X1103549Y12842D01*
X1103634Y12785D01*
X1103658Y12780D01*
X1103690Y12761D01*
X1103950Y12703D01*
X1103988Y12706D01*
X1104011Y12701D01*
X1105789Y12701D01*
X1105890Y12716D01*
X1105993Y12725D01*
X1106021Y12736D01*
X1106052Y12741D01*
X1106144Y12785D01*
X1106239Y12824D01*
X1106263Y12843D01*
X1106291Y12856D01*
X1106366Y12926D01*
X1106446Y12991D01*
X1106463Y13017D01*
X1106485Y13038D01*
X1106536Y13127D01*
X1106593Y13212D01*
X1106599Y13236D01*
X1106617Y13269D01*
X1106675Y13528D01*
X1106672Y13566D01*
X1106677Y13589D01*
X1106677Y24506D01*
X1107696Y24345D01*
X1109483Y23764D01*
X1111157Y22911D01*
X1112678Y21806D01*
X1114006Y20478D01*
X1115111Y18957D01*
X1115964Y17283D01*
X1116434Y15836D01*
X1116473Y15759D01*
X1116503Y15678D01*
X1116532Y15641D01*
X1116553Y15598D01*
X1116613Y15536D01*
X1116666Y15468D01*
X1116705Y15441D01*
X1116737Y15406D01*
X1116813Y15365D01*
X1116883Y15315D01*
X1116928Y15301D01*
X1116970Y15278D01*
X1117054Y15260D01*
X1117136Y15234D01*
X1117184Y15233D01*
X1117230Y15224D01*
X1117316Y15232D01*
X1117402Y15231D01*
X1117448Y15244D01*
X1117495Y15249D01*
X1117574Y15282D01*
X1117657Y15307D01*
X1117696Y15333D01*
X1117740Y15351D01*
X1117806Y15406D01*
X1117878Y15454D01*
X1117898Y15483D01*
X1117944Y15522D01*
X1118088Y15745D01*
X1118093Y15761D01*
X1118100Y15771D01*
X1118915Y17740D01*
X1118930Y17800D01*
X1118955Y17857D01*
X1118962Y17929D01*
X1118979Y17998D01*
X1118976Y18060D01*
X1118982Y18122D01*
X1118968Y18192D01*
X1118964Y18264D01*
X1118942Y18322D01*
X1118930Y18383D01*
X1118904Y18423D01*
X1118871Y18513D01*
X1118740Y18682D01*
X1118723Y18708D01*
X1096417Y41014D01*
X1096400Y41027D01*
X1096387Y41043D01*
X1096293Y41105D01*
X1096203Y41172D01*
X1096183Y41179D01*
X1096166Y41190D01*
X1096121Y41200D01*
X1095952Y41259D01*
X1095839Y41263D01*
X1095789Y41274D01*
X954151Y41274D01*
X954130Y41271D01*
X954109Y41273D01*
X953999Y41251D01*
X953888Y41234D01*
X953869Y41225D01*
X953849Y41221D01*
X953810Y41197D01*
X953649Y41119D01*
X953566Y41042D01*
X953523Y41014D01*
X932314Y19805D01*
X932283Y19764D01*
X932245Y19728D01*
X932205Y19657D01*
X932156Y19591D01*
X932139Y19542D01*
X932114Y19498D01*
X932096Y19418D01*
X932069Y19340D01*
X932067Y19288D01*
X932056Y19238D01*
X932062Y19156D01*
X932060Y19074D01*
X932073Y19025D01*
X932077Y18973D01*
X932108Y18897D01*
X932129Y18818D01*
X932157Y18774D01*
X932176Y18726D01*
X932228Y18663D01*
X932272Y18594D01*
X932311Y18560D01*
X932344Y18520D01*
X932412Y18475D01*
X932475Y18422D01*
X932522Y18401D01*
X932565Y18373D01*
X932615Y18361D01*
X932719Y18317D01*
X932897Y18299D01*
X932942Y18289D01*
X1049825Y18289D01*
X1050088Y18329D01*
X1050134Y18351D01*
X1050165Y18356D01*
X1052761Y19432D01*
X1055439Y19432D01*
X1057913Y18407D01*
X1059807Y16513D01*
X1060832Y14039D01*
X1060832Y11361D01*
X1059807Y8887D01*
X1057913Y6993D01*
X1055439Y5968D01*
X1052761Y5968D01*
X1050165Y7044D01*
X1049907Y7107D01*
X1049855Y7105D01*
X1049825Y7111D01*
X544988Y7111D01*
X542934Y7962D01*
X531345Y19551D01*
X531328Y19564D01*
X531315Y19580D01*
X531222Y19642D01*
X531131Y19709D01*
X531111Y19716D01*
X531094Y19727D01*
X531049Y19737D01*
X530880Y19796D01*
X530767Y19800D01*
X530717Y19811D01*
X524975Y19811D01*
X524712Y19771D01*
X524666Y19749D01*
X524635Y19744D01*
X521917Y18618D01*
X521689Y18480D01*
X521655Y18442D01*
X521629Y18425D01*
X507769Y4565D01*
X507738Y4524D01*
X507700Y4488D01*
X507660Y4417D01*
X507611Y4351D01*
X507594Y4302D01*
X507568Y4258D01*
X507551Y4178D01*
X507524Y4100D01*
X507522Y4048D01*
X507511Y3998D01*
X507517Y3916D01*
X507514Y3834D01*
X507528Y3785D01*
X507532Y3733D01*
X507563Y3657D01*
X507584Y3578D01*
X507612Y3534D01*
X507631Y3486D01*
X507683Y3423D01*
X507727Y3354D01*
X507766Y3320D01*
X507799Y3280D01*
X507867Y3235D01*
X507930Y3182D01*
X507977Y3161D01*
X508020Y3133D01*
X508070Y3121D01*
X508174Y3077D01*
X508352Y3059D01*
X508397Y3049D01*
X1069405Y3049D01*
X1069456Y3056D01*
G37*
G36*
X996753Y101742D02*
X996753Y101742D01*
X996845Y101747D01*
X996884Y101761D01*
X996925Y101768D01*
X997008Y101808D01*
X997094Y101840D01*
X997127Y101865D01*
X997164Y101883D01*
X997232Y101946D01*
X997304Y102003D01*
X997328Y102036D01*
X997358Y102065D01*
X997404Y102145D01*
X997457Y102220D01*
X997470Y102260D01*
X997490Y102295D01*
X997510Y102386D01*
X997539Y102473D01*
X997539Y102515D01*
X997548Y102555D01*
X997540Y102647D01*
X997541Y102739D01*
X997530Y102779D01*
X997526Y102820D01*
X997492Y102905D01*
X997466Y102994D01*
X997443Y103028D01*
X997427Y103067D01*
X997369Y103138D01*
X997318Y103215D01*
X997292Y103233D01*
X997260Y103273D01*
X997039Y103420D01*
X997019Y103425D01*
X997002Y103437D01*
X996249Y103748D01*
X992748Y107250D01*
X990853Y111824D01*
X990853Y116776D01*
X992748Y121350D01*
X993833Y122435D01*
X993863Y122476D01*
X993901Y122512D01*
X993942Y122583D01*
X993990Y122649D01*
X994007Y122698D01*
X994033Y122742D01*
X994051Y122822D01*
X994078Y122900D01*
X994079Y122952D01*
X994091Y123002D01*
X994084Y123084D01*
X994087Y123166D01*
X994073Y123215D01*
X994069Y123267D01*
X994039Y123343D01*
X994017Y123422D01*
X993989Y123466D01*
X993970Y123514D01*
X993918Y123577D01*
X993874Y123646D01*
X993835Y123680D01*
X993802Y123720D01*
X993734Y123765D01*
X993672Y123818D01*
X993624Y123839D01*
X993581Y123867D01*
X993531Y123879D01*
X993427Y123923D01*
X993249Y123941D01*
X993205Y123951D01*
X835595Y123951D01*
X835544Y123944D01*
X835493Y123945D01*
X835414Y123924D01*
X835333Y123911D01*
X835286Y123889D01*
X835236Y123875D01*
X835167Y123831D01*
X835093Y123796D01*
X835056Y123761D01*
X835012Y123733D01*
X834959Y123670D01*
X834899Y123614D01*
X834873Y123570D01*
X834840Y123530D01*
X834808Y123455D01*
X834767Y123384D01*
X834756Y123333D01*
X834736Y123286D01*
X834727Y123204D01*
X834709Y123124D01*
X834714Y123073D01*
X834708Y123021D01*
X834724Y122941D01*
X834731Y122859D01*
X834750Y122811D01*
X834760Y122761D01*
X834788Y122717D01*
X834830Y122612D01*
X834943Y122473D01*
X834967Y122435D01*
X836052Y121350D01*
X837947Y116776D01*
X837947Y111824D01*
X836052Y107250D01*
X835856Y107054D01*
X835826Y107013D01*
X835788Y106977D01*
X835747Y106906D01*
X835699Y106840D01*
X835682Y106791D01*
X835656Y106747D01*
X835638Y106667D01*
X835611Y106589D01*
X835610Y106537D01*
X835598Y106487D01*
X835605Y106405D01*
X835602Y106323D01*
X835616Y106274D01*
X835620Y106222D01*
X835651Y106146D01*
X835672Y106067D01*
X835700Y106023D01*
X835719Y105975D01*
X835771Y105912D01*
X835815Y105843D01*
X835854Y105809D01*
X835887Y105769D01*
X835955Y105724D01*
X836017Y105671D01*
X836065Y105650D01*
X836108Y105622D01*
X836158Y105610D01*
X836262Y105566D01*
X836440Y105548D01*
X836484Y105538D01*
X840011Y105538D01*
X840032Y105541D01*
X840053Y105539D01*
X840163Y105561D01*
X840274Y105578D01*
X840293Y105587D01*
X840313Y105591D01*
X840352Y105615D01*
X840513Y105693D01*
X840596Y105770D01*
X840639Y105798D01*
X853079Y118238D01*
X908450Y118238D01*
X908470Y118241D01*
X908491Y118239D01*
X908602Y118261D01*
X908712Y118278D01*
X908731Y118287D01*
X908752Y118291D01*
X908791Y118315D01*
X908952Y118393D01*
X909034Y118470D01*
X909078Y118498D01*
X910587Y120007D01*
X913061Y121032D01*
X915739Y121032D01*
X918213Y120007D01*
X920107Y118113D01*
X921132Y115639D01*
X921132Y112961D01*
X920144Y110576D01*
X920141Y110566D01*
X920136Y110557D01*
X920109Y110437D01*
X920080Y110318D01*
X920081Y110307D01*
X920078Y110297D01*
X920088Y110175D01*
X920095Y110052D01*
X920099Y110043D01*
X920100Y110032D01*
X920146Y109918D01*
X920189Y109804D01*
X920195Y109795D01*
X920199Y109785D01*
X920276Y109690D01*
X920351Y109593D01*
X920360Y109587D01*
X920366Y109579D01*
X920469Y109511D01*
X920569Y109441D01*
X920579Y109437D01*
X920588Y109432D01*
X920618Y109425D01*
X920822Y109359D01*
X920917Y109358D01*
X920964Y109348D01*
X987151Y109348D01*
X989718Y106781D01*
X994511Y101988D01*
X994528Y101975D01*
X994541Y101959D01*
X994635Y101897D01*
X994725Y101830D01*
X994745Y101823D01*
X994762Y101812D01*
X994807Y101802D01*
X994976Y101743D01*
X995089Y101739D01*
X995139Y101728D01*
X996662Y101728D01*
X996753Y101742D01*
G37*
%LPC*%
G36*
X859614Y40893D02*
X859614Y40893D01*
X852122Y43620D01*
X846015Y48744D01*
X842029Y55649D01*
X840645Y63500D01*
X842029Y71351D01*
X846015Y78255D01*
X852122Y83380D01*
X859614Y86107D01*
X867586Y86107D01*
X875078Y83380D01*
X881185Y78256D01*
X885171Y71351D01*
X886555Y63500D01*
X885171Y55649D01*
X881185Y48745D01*
X875078Y43620D01*
X867586Y40893D01*
X859614Y40893D01*
G37*
%LPD*%
G36*
X313462Y77599D02*
X313462Y77599D01*
X313472Y77598D01*
X313593Y77619D01*
X313714Y77638D01*
X313724Y77642D01*
X313734Y77644D01*
X313842Y77700D01*
X313953Y77753D01*
X313961Y77761D01*
X313970Y77765D01*
X314058Y77851D01*
X314148Y77935D01*
X314153Y77944D01*
X314160Y77951D01*
X314219Y78060D01*
X314280Y78165D01*
X314282Y78176D01*
X314287Y78185D01*
X314311Y78306D01*
X314337Y78425D01*
X314337Y78435D01*
X314339Y78446D01*
X314333Y78476D01*
X314316Y78690D01*
X314280Y78779D01*
X314272Y78826D01*
X313351Y81048D01*
X313351Y84052D01*
X314500Y86826D01*
X316200Y88526D01*
X316231Y88567D01*
X316269Y88603D01*
X316309Y88674D01*
X316358Y88740D01*
X316375Y88789D01*
X316401Y88833D01*
X316419Y88913D01*
X316445Y88991D01*
X316447Y89043D01*
X316458Y89093D01*
X316452Y89175D01*
X316455Y89257D01*
X316441Y89306D01*
X316437Y89358D01*
X316406Y89434D01*
X316385Y89513D01*
X316357Y89557D01*
X316338Y89605D01*
X316286Y89668D01*
X316242Y89737D01*
X316203Y89771D01*
X316170Y89811D01*
X316102Y89856D01*
X316040Y89909D01*
X315992Y89930D01*
X315949Y89958D01*
X315899Y89970D01*
X315795Y90014D01*
X315617Y90032D01*
X315572Y90042D01*
X196309Y90042D01*
X196288Y90039D01*
X196267Y90041D01*
X196157Y90019D01*
X196046Y90002D01*
X196027Y89993D01*
X196007Y89989D01*
X195968Y89965D01*
X195807Y89887D01*
X195724Y89810D01*
X195681Y89782D01*
X187553Y81654D01*
X187522Y81613D01*
X187484Y81577D01*
X187444Y81506D01*
X187395Y81440D01*
X187378Y81391D01*
X187353Y81347D01*
X187335Y81267D01*
X187308Y81189D01*
X187306Y81137D01*
X187295Y81087D01*
X187301Y81005D01*
X187299Y80923D01*
X187312Y80874D01*
X187316Y80822D01*
X187347Y80746D01*
X187368Y80667D01*
X187396Y80623D01*
X187415Y80575D01*
X187467Y80512D01*
X187511Y80443D01*
X187550Y80409D01*
X187583Y80369D01*
X187651Y80324D01*
X187714Y80271D01*
X187761Y80250D01*
X187804Y80222D01*
X187854Y80210D01*
X187958Y80166D01*
X188136Y80148D01*
X188181Y80138D01*
X308971Y80138D01*
X311251Y77858D01*
X311268Y77845D01*
X311281Y77829D01*
X311375Y77767D01*
X311465Y77700D01*
X311485Y77693D01*
X311502Y77682D01*
X311547Y77672D01*
X311716Y77613D01*
X311829Y77609D01*
X311879Y77598D01*
X313451Y77598D01*
X313462Y77599D01*
G37*
G36*
X440099Y11953D02*
X440099Y11953D01*
X440191Y11958D01*
X440230Y11972D01*
X440271Y11979D01*
X440354Y12019D01*
X440440Y12051D01*
X440473Y12076D01*
X440510Y12094D01*
X440578Y12157D01*
X440651Y12214D01*
X440674Y12248D01*
X440704Y12276D01*
X440750Y12356D01*
X440803Y12431D01*
X440816Y12471D01*
X440836Y12506D01*
X440856Y12596D01*
X440885Y12684D01*
X440885Y12726D01*
X440894Y12766D01*
X440887Y12858D01*
X440888Y12950D01*
X440876Y12990D01*
X440873Y13031D01*
X440838Y13117D01*
X440812Y13205D01*
X440789Y13239D01*
X440774Y13278D01*
X440715Y13349D01*
X440664Y13426D01*
X440638Y13444D01*
X440606Y13484D01*
X440385Y13631D01*
X440365Y13636D01*
X440348Y13648D01*
X437450Y14848D01*
X433948Y18350D01*
X432053Y22924D01*
X432053Y27876D01*
X433115Y30440D01*
X433130Y30500D01*
X433155Y30557D01*
X433162Y30629D01*
X433179Y30698D01*
X433176Y30760D01*
X433182Y30822D01*
X433168Y30892D01*
X433164Y30964D01*
X433142Y31022D01*
X433130Y31083D01*
X433104Y31123D01*
X433071Y31213D01*
X432940Y31382D01*
X432923Y31408D01*
X430429Y33902D01*
X430424Y33906D01*
X430423Y33906D01*
X430412Y33915D01*
X430399Y33931D01*
X430305Y33993D01*
X430215Y34060D01*
X430195Y34067D01*
X430178Y34078D01*
X430133Y34088D01*
X429964Y34147D01*
X429851Y34151D01*
X429801Y34162D01*
X416534Y34162D01*
X416421Y34145D01*
X416307Y34133D01*
X416290Y34125D01*
X416271Y34122D01*
X416168Y34072D01*
X416063Y34027D01*
X416049Y34015D01*
X416032Y34007D01*
X415948Y33928D01*
X415861Y33854D01*
X415851Y33838D01*
X415838Y33825D01*
X415781Y33726D01*
X415720Y33629D01*
X415715Y33611D01*
X415706Y33595D01*
X415681Y33483D01*
X415651Y33372D01*
X415652Y33353D01*
X415648Y33335D01*
X415657Y33221D01*
X415662Y33106D01*
X415668Y33093D01*
X415670Y33070D01*
X415769Y32823D01*
X415785Y32804D01*
X415787Y32799D01*
X415805Y32776D01*
X415816Y32752D01*
X416611Y31657D01*
X417464Y29983D01*
X418045Y28196D01*
X418206Y27177D01*
X407289Y27177D01*
X407188Y27162D01*
X407085Y27153D01*
X407057Y27142D01*
X407026Y27137D01*
X406934Y27093D01*
X406839Y27054D01*
X406815Y27035D01*
X406787Y27022D01*
X406712Y26952D01*
X406632Y26887D01*
X406615Y26861D01*
X406593Y26840D01*
X406542Y26751D01*
X406485Y26666D01*
X406480Y26642D01*
X406461Y26610D01*
X406403Y26350D01*
X406406Y26312D01*
X406401Y26289D01*
X406401Y24511D01*
X406416Y24409D01*
X406425Y24307D01*
X406436Y24279D01*
X406441Y24248D01*
X406485Y24156D01*
X406524Y24060D01*
X406543Y24037D01*
X406556Y24009D01*
X406626Y23934D01*
X406691Y23854D01*
X406717Y23837D01*
X406738Y23815D01*
X406827Y23764D01*
X406912Y23707D01*
X406936Y23701D01*
X406969Y23683D01*
X407228Y23625D01*
X407266Y23628D01*
X407289Y23623D01*
X418206Y23623D01*
X418045Y22604D01*
X417464Y20817D01*
X416611Y19143D01*
X415506Y17622D01*
X414178Y16294D01*
X412657Y15189D01*
X410983Y14336D01*
X409196Y13755D01*
X408874Y13704D01*
X408813Y13685D01*
X408750Y13675D01*
X408687Y13645D01*
X408621Y13624D01*
X408568Y13587D01*
X408511Y13560D01*
X408460Y13512D01*
X408402Y13472D01*
X408363Y13422D01*
X408316Y13378D01*
X408282Y13318D01*
X408239Y13263D01*
X408216Y13203D01*
X408185Y13148D01*
X408169Y13079D01*
X408145Y13014D01*
X408141Y12950D01*
X408127Y12888D01*
X408132Y12818D01*
X408128Y12749D01*
X408143Y12687D01*
X408148Y12623D01*
X408174Y12558D01*
X408191Y12490D01*
X408224Y12436D01*
X408247Y12376D01*
X408291Y12322D01*
X408327Y12262D01*
X408375Y12220D01*
X408415Y12170D01*
X408473Y12131D01*
X408525Y12085D01*
X408583Y12058D01*
X408636Y12023D01*
X408682Y12012D01*
X408767Y11974D01*
X408891Y11966D01*
X409013Y11939D01*
X440008Y11939D01*
X440099Y11953D01*
G37*
G36*
X495031Y44422D02*
X495031Y44422D01*
X495052Y44419D01*
X495162Y44441D01*
X495273Y44458D01*
X495292Y44467D01*
X495312Y44471D01*
X495351Y44496D01*
X495512Y44574D01*
X495595Y44651D01*
X495638Y44679D01*
X500109Y49150D01*
X575179Y49150D01*
X575230Y49157D01*
X575282Y49156D01*
X575361Y49177D01*
X575442Y49190D01*
X575489Y49212D01*
X575538Y49226D01*
X575608Y49270D01*
X575682Y49305D01*
X575719Y49340D01*
X575763Y49368D01*
X575816Y49431D01*
X575876Y49487D01*
X575901Y49531D01*
X575935Y49571D01*
X575967Y49646D01*
X576008Y49717D01*
X576019Y49768D01*
X576039Y49815D01*
X576048Y49897D01*
X576066Y49977D01*
X576061Y50028D01*
X576067Y50080D01*
X576051Y50160D01*
X576044Y50242D01*
X576025Y50290D01*
X576015Y50340D01*
X575987Y50384D01*
X575945Y50489D01*
X575832Y50628D01*
X575807Y50666D01*
X572759Y53714D01*
X572743Y53727D01*
X572729Y53743D01*
X572636Y53805D01*
X572545Y53872D01*
X572526Y53879D01*
X572508Y53890D01*
X572464Y53900D01*
X572294Y53959D01*
X572182Y53963D01*
X572131Y53974D01*
X570869Y53974D01*
X570848Y53971D01*
X570827Y53973D01*
X570717Y53951D01*
X570606Y53934D01*
X570587Y53925D01*
X570566Y53921D01*
X570528Y53897D01*
X570367Y53819D01*
X570284Y53742D01*
X570241Y53714D01*
X567707Y51180D01*
X511031Y51180D01*
X509259Y52952D01*
X509243Y52965D01*
X509229Y52981D01*
X509136Y53043D01*
X509045Y53110D01*
X509026Y53117D01*
X509008Y53128D01*
X508964Y53138D01*
X508794Y53197D01*
X508682Y53201D01*
X508631Y53212D01*
X496029Y53212D01*
X496008Y53209D01*
X495987Y53211D01*
X495877Y53189D01*
X495766Y53172D01*
X495747Y53163D01*
X495727Y53159D01*
X495688Y53135D01*
X495527Y53057D01*
X495444Y52980D01*
X495401Y52952D01*
X493148Y50699D01*
X490751Y48303D01*
X490690Y48220D01*
X490624Y48142D01*
X490612Y48113D01*
X490594Y48089D01*
X490560Y47992D01*
X490520Y47897D01*
X490516Y47867D01*
X490506Y47838D01*
X490503Y47735D01*
X490492Y47633D01*
X490498Y47603D01*
X490497Y47572D01*
X490524Y47473D01*
X490544Y47372D01*
X490557Y47352D01*
X490567Y47315D01*
X490710Y47091D01*
X490739Y47067D01*
X490751Y47046D01*
X493119Y44679D01*
X493136Y44666D01*
X493149Y44650D01*
X493243Y44587D01*
X493333Y44521D01*
X493353Y44514D01*
X493371Y44502D01*
X493415Y44492D01*
X493584Y44433D01*
X493697Y44430D01*
X493747Y44418D01*
X495010Y44418D01*
X495031Y44422D01*
G37*
%LPC*%
G36*
X1157477Y112523D02*
X1157477Y112523D01*
X1167506Y112523D01*
X1167345Y111504D01*
X1166764Y109717D01*
X1165911Y108043D01*
X1164806Y106522D01*
X1163478Y105194D01*
X1161957Y104089D01*
X1160283Y103236D01*
X1158496Y102655D01*
X1157477Y102494D01*
X1157477Y112523D01*
G37*
%LPD*%
D10*
X1003300Y114300D03*
X774700Y114300D03*
X1079500Y12700D03*
X1155700Y114300D03*
X1104900Y12700D03*
X1130300Y114300D03*
X381000Y12700D03*
X406400Y25400D03*
X800100Y114300D03*
X825500Y114300D03*
X469900Y25400D03*
X444500Y25400D03*
X1130300Y12700D03*
X1155700Y12700D03*
X1181100Y12700D03*
X1079500Y114300D03*
X1041400Y114300D03*
D11*
X965200Y116840D03*
X883920Y120650D03*
D12*
X920840Y116840D02*
X965200Y116840D01*
X920840Y116840D02*
X917030Y120650D01*
X883920Y120650D01*
X571500Y51562D02*
X499110Y51562D01*
D11*
X571500Y51562D03*
X1181100Y114300D03*
X1041400Y25400D03*
X1016000Y69850D03*
X40640Y33020D03*
X101600Y88900D03*
X165100Y101600D03*
X425450Y17780D03*
X283210Y85090D03*
X158750Y12700D03*
X137160Y7620D03*
D12*
X494379Y46831D02*
X499110Y51562D01*
D11*
X494379Y46831D03*
X165100Y25400D03*
X520700Y25400D03*
X1054100Y12700D03*
D13*
X546100Y12700D01*
X520700Y25400D02*
X501650Y6350D01*
X387350Y6350D01*
X520700Y25400D02*
X533400Y25400D01*
X546100Y12700D01*
D11*
X279400Y16510D03*
X116840Y39370D03*
D13*
X129540Y39370D02*
X143510Y25400D01*
X129540Y39370D02*
X116840Y39370D01*
X143510Y25400D02*
X165100Y25400D01*
X381000Y12700D02*
X387350Y6350D01*
X377190Y16510D02*
X279400Y16510D01*
X377190Y16510D02*
X381000Y12700D01*
D11*
X73660Y54610D03*
D12*
X83730Y54610D01*
X86270Y57150D01*
X92710Y57150D01*
X95504Y54356D01*
X100127Y54356D02*
X112827Y67056D01*
X100127Y54356D02*
X95504Y54356D01*
X112827Y67056D02*
X151384Y67056D01*
X168910Y49530D01*
X172630Y49530D01*
X175170Y52070D01*
X180430Y52070D01*
D11*
X215900Y45720D03*
D12*
X186780Y45720D02*
X180430Y52070D01*
X186780Y45720D02*
X215900Y45720D01*
D11*
X280670Y31750D03*
X124460Y29210D03*
D12*
X128270Y29210D01*
X138430Y19050D01*
X278130Y29210D02*
X280670Y31750D01*
X273140Y29210D02*
X262980Y19050D01*
X138430Y19050D01*
X273140Y29210D02*
X278130Y29210D01*
D11*
X68580Y40640D03*
D12*
X101651Y40640D01*
X116764Y55753D01*
X141097Y55753D01*
X161544Y35306D02*
X172923Y35306D01*
X179019Y29210D01*
X161544Y35306D02*
X141097Y55753D01*
X179019Y29210D02*
X263082Y29210D01*
X275528Y41656D01*
X453644Y41656D01*
X469900Y25400D01*
D11*
X88900Y50800D03*
D12*
X101600Y50800D01*
X114300Y63500D01*
X147320Y63500D01*
X166370Y44450D01*
X176530Y44450D01*
X177800Y45720D01*
D11*
X177800Y45720D03*
D12*
X177800Y25400D02*
X264301Y25400D01*
X277001Y38100D02*
X431800Y38100D01*
X277001Y38100D02*
X264301Y25400D01*
D11*
X80010Y33020D03*
D12*
X99060Y33020D01*
X138303Y52197D02*
X158750Y31750D01*
X138303Y52197D02*
X118237Y52197D01*
X171450Y31750D02*
X177800Y25400D01*
X118237Y52197D02*
X99060Y33020D01*
X158750Y31750D02*
X171450Y31750D01*
X431800Y38100D02*
X444500Y25400D01*
D11*
X57150Y48260D03*
D12*
X72390Y48260D01*
X76454Y44196D01*
X100178Y44196D02*
X115291Y59309D01*
X143891Y59309D01*
X163830Y39370D01*
X268213Y39370D01*
X100178Y44196D02*
X76454Y44196D01*
X268213Y39370D02*
X274055Y45212D01*
X1097788Y45212D02*
X1130300Y12700D01*
X837540Y23622D02*
X815950Y45212D01*
X952152Y45212D02*
X1097788Y45212D01*
X930562Y23622D02*
X837540Y23622D01*
X930562Y23622D02*
X952152Y45212D01*
X497009Y40481D02*
X491748Y40481D01*
X487017Y45212D02*
X274055Y45212D01*
X487017Y45212D02*
X491748Y40481D01*
X497009Y40481D02*
X501740Y45212D01*
X815950Y45212D01*
D11*
X189320Y52160D03*
D12*
X189411Y52070D01*
X1092200Y52070D02*
X1116330Y52070D01*
X1155700Y12700D01*
X1092200Y52070D02*
X1092110Y52160D01*
X839013Y27178D02*
X814096Y52096D01*
X954071Y52160D02*
X1092110Y52160D01*
X929089Y27178D02*
X839013Y27178D01*
X929089Y27178D02*
X954071Y52160D01*
X814096Y52096D02*
X579947Y52096D01*
X574130Y57912D02*
X568870Y57912D01*
X566076Y55118D01*
X574130Y57912D02*
X579947Y52096D01*
X512662Y55118D02*
X510630Y57150D01*
X494030Y57150D01*
X488950Y52070D01*
X189411Y52070D01*
X512662Y55118D02*
X566076Y55118D01*
D11*
X185420Y97558D03*
D12*
X418266Y97558D01*
X431242Y84582D01*
X498449Y84582D01*
X509117Y95250D01*
D11*
X1049020Y78740D03*
D12*
X753263Y95250D02*
X509117Y95250D01*
X753263Y95250D02*
X757581Y90932D01*
X1048063Y79697D02*
X1049020Y78740D01*
X1048063Y79697D02*
X907762Y79697D01*
X851662Y90932D02*
X757581Y90932D01*
X851662Y90932D02*
X855980Y95250D01*
X892209Y95250D01*
X907762Y79697D01*
D11*
X179070Y104140D03*
D12*
X416713Y104140D01*
X432715Y88138D01*
X496976Y88138D01*
X509168Y100330D01*
X944965Y83253D02*
X946802Y85090D01*
X1098550Y85090D02*
X1106170Y92710D01*
D11*
X1106170Y92710D03*
D12*
X753212Y100330D02*
X509168Y100330D01*
X946802Y85090D02*
X1098550Y85090D01*
X759054Y94488D02*
X753212Y100330D01*
X909235Y83253D02*
X944965Y83253D01*
X847598Y94488D02*
X759054Y94488D01*
X847598Y94488D02*
X853440Y100330D01*
X892158Y100330D01*
X909235Y83253D01*
D11*
X182739Y58510D03*
D12*
X1135380Y58420D02*
X1181100Y12700D01*
X955302Y58420D02*
X927616Y30734D01*
X840486Y30734D01*
X812710Y58510D01*
X955302Y58420D02*
X1135380Y58420D01*
X490361Y58510D02*
X182739Y58510D01*
X575603Y61468D02*
X578561Y58510D01*
X493319Y61468D02*
X490361Y58510D01*
X493319Y61468D02*
X575603Y61468D01*
X578561Y58510D02*
X812710Y58510D01*
D11*
X964243Y66040D03*
X190500Y66040D03*
D12*
X812800Y66040D01*
X844550Y34290D01*
X926143Y34290D01*
X953829Y61976D01*
X960179Y61976D02*
X964243Y66040D01*
X960179Y61976D02*
X953829Y61976D01*
D11*
X59690Y79801D03*
D12*
X90379Y110490D01*
X415392Y110490D02*
X434188Y91694D01*
X495503Y91694D01*
X509219Y105410D01*
X753161Y105410D02*
X760527Y98044D01*
X415392Y110490D02*
X90379Y110490D01*
X509219Y105410D02*
X753161Y105410D01*
X760527Y98044D02*
X844804Y98044D01*
X985520Y105410D02*
X993140Y97790D01*
X1024890Y97790D01*
X852170Y105410D02*
X844804Y98044D01*
X852170Y105410D02*
X985520Y105410D01*
X1024890Y97790D02*
X1041400Y114300D01*
D11*
X59735Y88945D03*
D12*
X85090Y114300D01*
X416611Y114300D01*
X494030Y95250D02*
X509270Y110490D01*
X753110Y110490D02*
X762000Y101600D01*
X435661Y95250D02*
X416611Y114300D01*
X435661Y95250D02*
X494030Y95250D01*
X509270Y110490D02*
X753110Y110490D01*
D11*
X914400Y114300D03*
D12*
X842010Y101600D02*
X762000Y101600D01*
X854710Y114300D02*
X914400Y114300D01*
X854710Y114300D02*
X842010Y101600D01*
D11*
X59690Y99060D03*
D12*
X78486Y117856D01*
X418084Y117856D02*
X436880Y99060D01*
X492760Y99060D01*
X508000Y114300D01*
X774700Y114300D01*
X418084Y117856D02*
X78486Y117856D01*
D11*
X171405Y82595D03*
D12*
X182925Y82595D01*
X194310Y93980D01*
X416815Y93980D01*
D11*
X749300Y88900D03*
D12*
X429769Y81026D02*
X416815Y93980D01*
X429769Y81026D02*
X499922Y81026D01*
X507796Y88900D01*
X749300Y88900D01*
D11*
X155530Y75700D03*
X759460Y77470D03*
D12*
X757690Y75700D01*
X372880Y75700D02*
X370840Y73660D01*
X309880Y73660D01*
X307340Y76200D01*
X156029Y76200D01*
X155530Y75700D01*
X372880Y75700D02*
X757690Y75700D01*
M02*
