G04 EAGLE Gerber RS-274X export*
G75*
%MOMM*%
%FSLAX34Y34*%
%LPD*%
%INSolderpaste Top*%
%IPPOS*%
%AMOC8*
5,1,8,0,0,1.08239X$1,22.5*%
G01*
%ADD10R,1.000000X1.100000*%
%ADD11R,1.400000X1.200000*%
%ADD12R,0.830000X0.630000*%
%ADD13C,0.300000*%
%ADD14R,1.000000X4.600000*%
%ADD15R,1.600000X3.400000*%
%ADD16R,0.500000X2.500000*%
%ADD17R,2.000000X2.500000*%
%ADD18C,0.075600*%
%ADD19R,0.970000X0.900000*%
%ADD20R,0.700000X1.100000*%
%ADD21R,1.000000X1.150000*%
%ADD22R,0.500000X1.400000*%
%ADD23R,1.400000X0.500000*%
%ADD24R,1.200000X0.550000*%
%ADD25R,1.800000X1.000000*%
%ADD26R,0.700000X1.500000*%
%ADD27R,1.000000X0.600000*%
%ADD28R,1.000000X0.800000*%


D10*
X584200Y93100D03*
X584200Y110100D03*
X350520Y15630D03*
X350520Y32630D03*
X609600Y80400D03*
X609600Y97400D03*
X533400Y67700D03*
X533400Y84700D03*
X177800Y16900D03*
X177800Y33900D03*
X203200Y16900D03*
X203200Y33900D03*
X228600Y16900D03*
X228600Y33900D03*
X254000Y16900D03*
X254000Y33900D03*
X254000Y55000D03*
X254000Y72000D03*
X330200Y15630D03*
X330200Y32630D03*
D11*
X622300Y23100D03*
X622300Y53100D03*
D12*
X552450Y85020D03*
X552450Y108020D03*
X516890Y97720D03*
X516890Y120720D03*
D13*
X511500Y30670D02*
X504500Y30670D01*
X504500Y37670D01*
X511500Y37670D01*
X511500Y30670D01*
X511500Y33520D02*
X504500Y33520D01*
X504500Y36370D02*
X511500Y36370D01*
X511500Y13130D02*
X504500Y13130D01*
X504500Y20130D01*
X511500Y20130D01*
X511500Y13130D01*
X511500Y15980D02*
X504500Y15980D01*
X504500Y18830D02*
X511500Y18830D01*
D11*
X227330Y82790D03*
X227330Y112790D03*
D14*
X691990Y94150D03*
X671990Y94150D03*
D15*
X715990Y42150D03*
X647990Y42150D03*
D16*
X342900Y57550D03*
X350900Y57550D03*
X326900Y57550D03*
X334900Y57550D03*
D17*
X297900Y112550D03*
X387900Y112550D03*
X297900Y57550D03*
X387900Y57550D03*
D16*
X358900Y57550D03*
D18*
X225828Y56292D02*
X225828Y51648D01*
X225828Y56292D02*
X231372Y56292D01*
X231372Y51648D01*
X225828Y51648D01*
X225828Y52366D02*
X231372Y52366D01*
X231372Y53084D02*
X225828Y53084D01*
X225828Y53802D02*
X231372Y53802D01*
X231372Y54520D02*
X225828Y54520D01*
X225828Y55238D02*
X231372Y55238D01*
X231372Y55956D02*
X225828Y55956D01*
X225828Y60548D02*
X225828Y65192D01*
X231372Y65192D01*
X231372Y60548D01*
X225828Y60548D01*
X225828Y61266D02*
X231372Y61266D01*
X231372Y61984D02*
X225828Y61984D01*
X225828Y62702D02*
X231372Y62702D01*
X231372Y63420D02*
X225828Y63420D01*
X225828Y64138D02*
X231372Y64138D01*
X231372Y64856D02*
X225828Y64856D01*
D19*
X208280Y59460D03*
X208280Y75160D03*
D10*
X603250Y43570D03*
X603250Y60570D03*
X571500Y16900D03*
X571500Y33900D03*
X458470Y60080D03*
X458470Y77080D03*
X533400Y16900D03*
X533400Y33900D03*
X977900Y67700D03*
X977900Y84700D03*
X254000Y93100D03*
X254000Y110100D03*
D20*
X1038250Y81000D03*
X1038250Y46000D03*
X993750Y46000D03*
X993750Y81000D03*
X1139850Y81000D03*
X1139850Y46000D03*
X1095350Y46000D03*
X1095350Y81000D03*
D21*
X952100Y118420D03*
X927100Y118420D03*
X902100Y118420D03*
X952100Y61920D03*
X927100Y61920D03*
X902100Y61920D03*
D22*
X5043Y15097D03*
X13043Y15097D03*
X21043Y15097D03*
X29043Y15097D03*
X37043Y15097D03*
X45043Y15097D03*
X53043Y15097D03*
X61043Y15097D03*
X69043Y15097D03*
X77043Y15097D03*
X85043Y15097D03*
X93043Y15097D03*
X101043Y15097D03*
X109043Y15097D03*
X117043Y15097D03*
X125043Y15097D03*
D23*
X142893Y24097D03*
X142893Y32097D03*
X142893Y40097D03*
X142893Y48097D03*
X142893Y56097D03*
X142893Y64097D03*
X142893Y72097D03*
X142893Y80097D03*
X142893Y88097D03*
X142893Y96097D03*
X142893Y104097D03*
D22*
X125043Y113097D03*
X117043Y113097D03*
X109043Y113097D03*
X101043Y113097D03*
X93043Y113097D03*
X85043Y113097D03*
X77043Y113097D03*
X69043Y113097D03*
X61043Y113097D03*
X53043Y113097D03*
X45043Y113097D03*
X37043Y113097D03*
X29043Y113097D03*
X21043Y113097D03*
X13043Y113097D03*
X5043Y113097D03*
D24*
X584501Y54000D03*
X584501Y63500D03*
X584501Y73000D03*
X558499Y73000D03*
X558499Y54000D03*
X512111Y55270D03*
X512111Y64770D03*
X512111Y74270D03*
X486109Y74270D03*
X486109Y55270D03*
D25*
X304800Y10360D03*
X304800Y35360D03*
D26*
X434700Y94260D03*
X449700Y94260D03*
X479700Y94260D03*
D27*
X420700Y121760D03*
D28*
X420700Y100760D03*
D27*
X493700Y121760D03*
D28*
X493700Y100760D03*
M02*
